<?xml version="1.0" encoding="UTF-8" standalone="no"?><!DOCTYPE svg PUBLIC "-//W3C//DTD SVG 1.1//EN" "http://www.w3.org/Graphics/SVG/1.1/DTD/svg11.dtd"><!-- Generated by graphviz version 2.40.1 (20161225.0304)
 --><!-- Title: G Pages: 1 --><svg xmlns="http://www.w3.org/2000/svg" xmlns:xlink="http://www.w3.org/1999/xlink" width="1552pt" height="1700pt" viewBox="0.00 0.00 1551.57 1700.00">
<g id="graph0" class="graph" transform="scale(1 1) rotate(0) translate(4 1696)">
<title>G</title>
<polygon fill="#ffffff" stroke="transparent" points="-4,4 -4,-1696 1547.5729,-1696 1547.5729,4 -4,4"/>
<!-- Vitamins -->
<g id="node1" class="node">
<title>Vitamins</title>
<polygon fill="#edf8b1" stroke="#000000" points="601.667,-1620 532.333,-1620 532.333,-1584 601.667,-1584 601.667,-1620"/>
<text text-anchor="middle" x="567" y="-1597.8" font-family="Arial" font-size="14.00" fill="#000000">Vitamins</text>
</g>
<!-- ProteinPowder -->
<g id="node16" class="node">
<title>ProteinPowder</title>
<polygon fill="#edf8b1" stroke="#000000" points="128.794,-612 21.206,-612 21.206,-576 128.794,-576 128.794,-612"/>
<text text-anchor="middle" x="75" y="-589.8" font-family="Arial" font-size="14.00" fill="#000000">ProteinPowder</text>
</g>
<!-- Vitamins&#45;&gt;ProteinPowder -->
<g id="edge57" class="edge">
<title>Vitamins-&gt;ProteinPowder</title>
<path fill="none" stroke="#000000" d="M532.2926,-1596.9875C435.9053,-1582.1004 172,-1534.3671 172,-1458 172,-1458 172,-1458 172,-1170 172,-979.6159 86.652,-944.7814 62,-756 55.7847,-708.4041 56.3433,-695.6655 62,-648 63.0068,-639.5166 64.8736,-630.4376 66.8847,-622.1913"/>
<polygon fill="#000000" stroke="#000000" points="70.3278,-622.8576 69.4554,-612.2988 63.5528,-621.0971 70.3278,-622.8576"/>
</g>
<!-- Potatoes -->
<g id="node40" class="node">
<title>Potatoes</title>
<ellipse fill="#7fcdbb" stroke="#000000" cx="1071" cy="-1530" rx="49.2919" ry="18"/>
<text text-anchor="middle" x="1071" y="-1525.8" font-family="Arial" font-size="14.00" fill="#000000">Potatoes</text>
</g>
<!-- Vitamins&#45;&gt;Potatoes -->
<!-- Oil -->
<g id="node2" class="node">
<title>Oil</title>
<polygon fill="#edf8b1" stroke="#000000" points="1341,-1620 1287,-1620 1287,-1584 1341,-1584 1341,-1620"/>
<text text-anchor="middle" x="1314" y="-1597.8" font-family="Arial" font-size="14.00" fill="#000000">Oil</text>
</g>
<!-- Chips -->
<g id="node3" class="node">
<title>Chips</title>
<polygon fill="#edf8b1" stroke="#000000" points="1382,-1476 1328,-1476 1328,-1440 1382,-1440 1382,-1476"/>
<text text-anchor="middle" x="1355" y="-1453.8" font-family="Arial" font-size="14.00" fill="#000000">Chips</text>
</g>
<!-- Oil&#45;&gt;Chips -->
<g id="edge19" class="edge">
<title>Oil-&gt;Chips</title>
<path fill="none" stroke="#000000" d="M1316.8523,-1583.8294C1319.9614,-1565.4779 1325.511,-1536.4289 1333,-1512 1335.6871,-1503.2348 1339.2262,-1493.9133 1342.6783,-1485.526"/>
<polygon fill="#000000" stroke="#000000" points="1345.9518,-1486.7713 1346.6344,-1476.1984 1339.5075,-1484.038 1345.9518,-1486.7713"/>
</g>
<!-- HOil -->
<g id="node15" class="node">
<title>HOil</title>
<polygon fill="#edf8b1" stroke="#000000" points="808,-1188 754,-1188 754,-1152 808,-1152 808,-1188"/>
<text text-anchor="middle" x="781" y="-1165.8" font-family="Arial" font-size="14.00" fill="#000000">HOil</text>
</g>
<!-- Oil&#45;&gt;HOil -->
<g id="edge28" class="edge">
<title>Oil-&gt;HOil</title>
<path fill="none" stroke="#000000" d="M1286.6415,-1600.242C1220.8436,-1595.528 1056.0115,-1580.6835 1013,-1548 928.1655,-1483.5361 949.8553,-1430.4039 909,-1332 889.4886,-1285.0049 903.1677,-1263.4269 871,-1224 856.8746,-1206.6869 835.6314,-1193.5699 817.3303,-1184.6014"/>
<polygon fill="#000000" stroke="#000000" points="818.6238,-1181.3429 808.0815,-1180.2894 815.6659,-1187.6872 818.6238,-1181.3429"/>
</g>
<!-- Ethanol -->
<g id="node4" class="node">
<title>Ethanol</title>
<polygon fill="#edf8b1" stroke="#000000" points="754.9659,-1476 691.0341,-1476 691.0341,-1440 754.9659,-1440 754.9659,-1476"/>
<text text-anchor="middle" x="723" y="-1453.8" font-family="Arial" font-size="14.00" fill="#000000">Ethanol</text>
</g>
<!-- HardCider -->
<g id="node5" class="node">
<title>HardCider</title>
<polygon fill="#edf8b1" stroke="#000000" points="696.7717,-1404 617.2283,-1404 617.2283,-1368 696.7717,-1368 696.7717,-1404"/>
<text text-anchor="middle" x="657" y="-1381.8" font-family="Arial" font-size="14.00" fill="#000000">HardCider</text>
</g>
<!-- Ethanol&#45;&gt;HardCider -->
<g id="edge22" class="edge">
<title>Ethanol-&gt;HardCider</title>
<path fill="none" stroke="#000000" d="M706.3454,-1439.8314C698.5886,-1431.3694 689.2198,-1421.1489 680.739,-1411.8971"/>
<polygon fill="#000000" stroke="#000000" points="683.2162,-1409.4198 673.8788,-1404.4133 678.0561,-1414.1499 683.2162,-1409.4198"/>
</g>
<!-- Tequila -->
<g id="node8" class="node">
<title>Tequila</title>
<polygon fill="#edf8b1" stroke="#000000" points="764.8963,-972 703.1037,-972 703.1037,-936 764.8963,-936 764.8963,-972"/>
<text text-anchor="middle" x="734" y="-949.8" font-family="Arial" font-size="14.00" fill="#000000">Tequila</text>
</g>
<!-- Ethanol&#45;&gt;Tequila -->
<g id="edge36" class="edge">
<title>Ethanol-&gt;Tequila</title>
<path fill="none" stroke="#000000" d="M722.6789,-1439.8051C721.905,-1394.3226 720,-1272.0055 720,-1170 720,-1170 720,-1170 720,-1098 720,-1057.6868 725.5027,-1011.322 729.6084,-982.3387"/>
<polygon fill="#000000" stroke="#000000" points="733.1173,-982.5313 731.0992,-972.1304 726.1908,-981.5197 733.1173,-982.5313"/>
</g>
<!-- Beer -->
<g id="node11" class="node">
<title>Beer</title>
<polygon fill="#edf8b1" stroke="#000000" points="403,-1260 349,-1260 349,-1224 403,-1224 403,-1260"/>
<text text-anchor="middle" x="376" y="-1237.8" font-family="Arial" font-size="14.00" fill="#000000">Beer</text>
</g>
<!-- Ethanol&#45;&gt;Beer -->
<g id="edge33" class="edge">
<title>Ethanol-&gt;Beer</title>
<path fill="none" stroke="#000000" d="M690.9838,-1447.7874C638.2623,-1429.9605 531.4104,-1389.5012 455,-1332 431.1231,-1314.0319 409.1548,-1287.87 394.4785,-1268.379"/>
<polygon fill="#000000" stroke="#000000" points="397.21,-1266.1858 388.4595,-1260.2125 391.5751,-1270.3389 397.21,-1266.1858"/>
</g>
<!-- Parfume -->
<g id="node36" class="node">
<title>Parfume</title>
<polygon fill="#edf8b1" stroke="#000000" points="1283.3963,-36 1214.6037,-36 1214.6037,0 1283.3963,0 1283.3963,-36"/>
<text text-anchor="middle" x="1249" y="-13.8" font-family="Arial" font-size="14.00" fill="#000000">Parfume</text>
</g>
<!-- Ethanol&#45;&gt;Parfume -->
<g id="edge105" class="edge">
<title>Ethanol-&gt;Parfume</title>
<path fill="none" stroke="#000000" d="M754.7726,-1454.5576C826.62,-1445.47 1004.6802,-1415.5119 1125,-1332 1158.3036,-1308.8845 1161.2128,-1295.3825 1181,-1260 1375.8143,-911.6423 1350,-777.1312 1350,-378 1350,-378 1350,-378 1350,-162 1350,-112.9451 1310.2284,-68.7517 1280.5999,-42.6353"/>
<polygon fill="#000000" stroke="#000000" points="1282.809,-39.9191 1272.9356,-36.0763 1278.2576,-45.2375 1282.809,-39.9191"/>
</g>
<!-- RaveJuice -->
<g id="node22" class="node">
<title>RaveJuice</title>
<polygon fill="#edf8b1" stroke="#000000" points="697.8443,-252 616.1557,-252 616.1557,-216 697.8443,-216 697.8443,-252"/>
<text text-anchor="middle" x="657" y="-229.8" font-family="Arial" font-size="14.00" fill="#000000">RaveJuice</text>
</g>
<!-- HardCider&#45;&gt;RaveJuice -->
<g id="edge81" class="edge">
<title>HardCider-&gt;RaveJuice</title>
<path fill="none" stroke="#000000" d="M617.076,-1378.3842C572.5481,-1369.0428 504.5771,-1351.9655 488,-1332 298.7709,-1104.0924 514,-962.2255 514,-666 514,-666 514,-666 514,-378 514,-322.6911 567.7716,-281.0664 609.3683,-257.1409"/>
<polygon fill="#000000" stroke="#000000" points="611.2711,-260.0873 618.3021,-252.1617 607.8632,-253.9729 611.2711,-260.0873"/>
</g>
<!-- Seaweed -->
<g id="node45" class="node">
<title>Seaweed</title>
<ellipse fill="#7fcdbb" stroke="#000000" cx="969" cy="-1314" rx="51.08" ry="18"/>
<text text-anchor="middle" x="969" y="-1309.8" font-family="Arial" font-size="14.00" fill="#000000">Seaweed</text>
</g>
<!-- HardCider&#45;&gt;Seaweed -->
<!-- HFCS -->
<g id="node6" class="node">
<title>HFCS</title>
<polygon fill="#edf8b1" stroke="#000000" points="579.1025,-972 524.8975,-972 524.8975,-936 579.1025,-936 579.1025,-972"/>
<text text-anchor="middle" x="552" y="-949.8" font-family="Arial" font-size="14.00" fill="#000000">HFCS</text>
</g>
<!-- IceCream -->
<g id="node14" class="node">
<title>IceCream</title>
<polygon fill="#edf8b1" stroke="#000000" points="856.1669,-612 779.8331,-612 779.8331,-576 856.1669,-576 856.1669,-612"/>
<text text-anchor="middle" x="818" y="-589.8" font-family="Arial" font-size="14.00" fill="#000000">IceCream</text>
</g>
<!-- HFCS&#45;&gt;IceCream -->
<g id="edge51" class="edge">
<title>HFCS-&gt;IceCream</title>
<path fill="none" stroke="#000000" d="M562.4269,-935.5786C579.9142,-905.0494 616.7149,-842.342 652,-792 698.8512,-725.1564 712.2934,-709.4712 766,-648 774.4294,-638.3519 784.0648,-628.1394 792.7323,-619.223"/>
<polygon fill="#000000" stroke="#000000" points="795.2353,-621.6695 799.7377,-612.0789 790.2372,-616.7685 795.2353,-621.6695"/>
</g>
<!-- Chocolate -->
<g id="node17" class="node">
<title>Chocolate</title>
<polygon fill="#edf8b1" stroke="#000000" points="371.5168,-612 292.4832,-612 292.4832,-576 371.5168,-576 371.5168,-612"/>
<text text-anchor="middle" x="332" y="-589.8" font-family="Arial" font-size="14.00" fill="#000000">Chocolate</text>
</g>
<!-- HFCS&#45;&gt;Chocolate -->
<g id="edge59" class="edge">
<title>HFCS-&gt;Chocolate</title>
<path fill="none" stroke="#000000" d="M532.1593,-935.86C521.8618,-925.8641 509.487,-912.8945 500,-900 429.8651,-804.6742 368.9755,-676.7286 344.0351,-621.3935"/>
<polygon fill="#000000" stroke="#000000" points="347.2161,-619.933 339.9373,-612.2343 340.8264,-622.7918 347.2161,-619.933"/>
</g>
<!-- EnergyDrink -->
<g id="node21" class="node">
<title>EnergyDrink</title>
<polygon fill="#edf8b1" stroke="#000000" points="703.5014,-324 610.4986,-324 610.4986,-288 703.5014,-288 703.5014,-324"/>
<text text-anchor="middle" x="657" y="-301.8" font-family="Arial" font-size="14.00" fill="#000000">EnergyDrink</text>
</g>
<!-- HFCS&#45;&gt;EnergyDrink -->
<g id="edge78" class="edge">
<title>HFCS-&gt;EnergyDrink</title>
<path fill="none" stroke="#000000" d="M552,-935.8146C552,-908.4983 552,-855.25 552,-810 552,-810 552,-810 552,-450 552,-408.6022 551.8892,-393.6519 576,-360 584.7176,-347.8327 597.0976,-337.6212 609.5626,-329.4684"/>
<polygon fill="#000000" stroke="#000000" points="611.495,-332.3887 618.1619,-324.1544 607.8152,-326.4339 611.495,-332.3887"/>
</g>
<!-- Cake -->
<g id="node24" class="node">
<title>Cake</title>
<polygon fill="#edf8b1" stroke="#000000" points="377,-540 323,-540 323,-504 377,-504 377,-540"/>
<text text-anchor="middle" x="350" y="-517.8" font-family="Arial" font-size="14.00" fill="#000000">Cake</text>
</g>
<!-- HFCS&#45;&gt;Cake -->
<g id="edge71" class="edge">
<title>HFCS-&gt;Cake</title>
<path fill="none" stroke="#000000" d="M546.6643,-935.6121C527.0225,-868.6397 457.623,-638.4158 414,-576 406.2457,-564.9052 395.6659,-554.7376 385.3416,-546.2904"/>
<polygon fill="#000000" stroke="#000000" points="387.2076,-543.3064 377.1753,-539.8999 382.8937,-548.8191 387.2076,-543.3064"/>
</g>
<!-- Jelly -->
<g id="node30" class="node">
<title>Jelly</title>
<polygon fill="#edf8b1" stroke="#000000" points="710,-900 656,-900 656,-864 710,-864 710,-900"/>
<text text-anchor="middle" x="683" y="-877.8" font-family="Arial" font-size="14.00" fill="#000000">Jelly</text>
</g>
<!-- HFCS&#45;&gt;Jelly -->
<g id="edge44" class="edge">
<title>HFCS-&gt;Jelly</title>
<path fill="none" stroke="#000000" d="M579.1433,-939.0816C598.8158,-928.2692 625.6157,-913.5395 647.0636,-901.7513"/>
<polygon fill="#000000" stroke="#000000" points="648.8137,-904.7833 655.8915,-896.8993 645.4421,-898.6488 648.8137,-904.7833"/>
</g>
<!-- TurkishDelight -->
<g id="node35" class="node">
<title>TurkishDelight</title>
<polygon fill="#edf8b1" stroke="#000000" points="1500.9441,-36 1395.0559,-36 1395.0559,0 1500.9441,0 1500.9441,-36"/>
<text text-anchor="middle" x="1448" y="-13.8" font-family="Arial" font-size="14.00" fill="#000000">TurkishDelight</text>
</g>
<!-- HFCS&#45;&gt;TurkishDelight -->
<g id="edge111" class="edge">
<title>HFCS-&gt;TurkishDelight</title>
<path fill="none" stroke="#000000" d="M579.1664,-946.0671C612.4363,-936.1573 670.3654,-918.2705 719,-900 870.7094,-843.0075 922.7208,-851.0246 1054,-756 1235.6044,-624.5482 1388,-602.1869 1388,-378 1388,-378 1388,-378 1388,-162 1388,-118.2551 1411.8848,-72.3872 1429.5148,-44.4891"/>
<polygon fill="#000000" stroke="#000000" points="1432.4608,-46.379 1434.9809,-36.0882 1426.5934,-42.5614 1432.4608,-46.379"/>
</g>
<!-- Eggs -->
<g id="node7" class="node">
<title>Eggs</title>
<polygon fill="#edf8b1" stroke="#000000" points="291,-684 237,-684 237,-648 291,-648 291,-684"/>
<text text-anchor="middle" x="264" y="-661.8" font-family="Arial" font-size="14.00" fill="#000000">Eggs</text>
</g>
<!-- Eggs&#45;&gt;ProteinPowder -->
<g id="edge54" class="edge">
<title>Eggs-&gt;ProteinPowder</title>
<path fill="none" stroke="#000000" d="M236.9209,-655.6842C209.6776,-645.3058 166.8354,-628.9849 132.0613,-615.7376"/>
<polygon fill="#000000" stroke="#000000" points="133.0777,-612.3795 122.4868,-612.0902 130.5857,-618.9209 133.0777,-612.3795"/>
</g>
<!-- ChineseReadyMeal -->
<g id="node19" class="node">
<title>ChineseReadyMeal</title>
<polygon fill="#edf8b1" stroke="#000000" points="1118.1305,-396 979.8695,-396 979.8695,-360 1118.1305,-360 1118.1305,-396"/>
<text text-anchor="middle" x="1049" y="-373.8" font-family="Arial" font-size="14.00" fill="#000000">ChineseReadyMeal</text>
</g>
<!-- Eggs&#45;&gt;ChineseReadyMeal -->
<g id="edge95" class="edge">
<title>Eggs-&gt;ChineseReadyMeal</title>
<path fill="none" stroke="#000000" d="M291.0848,-656.3499C370.861,-627.8933 611.8547,-541.692 811,-468 873.0149,-445.0519 943.8782,-418.1697 992.0398,-399.7998"/>
<polygon fill="#000000" stroke="#000000" points="993.5654,-402.9638 1001.6603,-396.1284 991.0695,-396.4239 993.5654,-402.9638"/>
</g>
<!-- Eggs&#45;&gt;Cake -->
<g id="edge72" class="edge">
<title>Eggs-&gt;Cake</title>
<path fill="none" stroke="#000000" d="M264.3118,-647.7817C265.408,-628.608 269.389,-598.188 283,-576 290.8576,-563.1909 302.884,-552.1109 314.5902,-543.3788"/>
<polygon fill="#000000" stroke="#000000" points="316.8441,-546.0719 322.9934,-537.4442 312.806,-540.3541 316.8441,-546.0719"/>
</g>
<!-- JelloShots -->
<g id="node23" class="node">
<title>JelloShots</title>
<polygon fill="#edf8b1" stroke="#000000" points="774.0719,-828 693.9281,-828 693.9281,-792 774.0719,-792 774.0719,-828"/>
<text text-anchor="middle" x="734" y="-805.8" font-family="Arial" font-size="14.00" fill="#000000">JelloShots</text>
</g>
<!-- Tequila&#45;&gt;JelloShots -->
<g id="edge45" class="edge">
<title>Tequila-&gt;JelloShots</title>
<path fill="none" stroke="#000000" d="M734,-935.7623C734,-911.201 734,-867.2474 734,-838.3541"/>
<polygon fill="#000000" stroke="#000000" points="737.5001,-838.0896 734,-828.0896 730.5001,-838.0897 737.5001,-838.0896"/>
</g>
<!-- Meat -->
<g id="node9" class="node">
<title>Meat</title>
<polygon fill="#edf8b1" stroke="#000000" points="1107,-1260 1053,-1260 1053,-1224 1107,-1224 1107,-1260"/>
<text text-anchor="middle" x="1080" y="-1237.8" font-family="Arial" font-size="14.00" fill="#000000">Meat</text>
</g>
<!-- Meat&#45;&gt;ChineseReadyMeal -->
<g id="edge97" class="edge">
<title>Meat-&gt;ChineseReadyMeal</title>
<path fill="none" stroke="#000000" d="M1087.1318,-1223.835C1114.8117,-1150.8641 1211.2037,-872.2116 1162,-648 1143.1166,-561.9523 1111.4228,-549.9118 1079,-468 1070.8545,-447.4216 1062.9946,-423.6495 1057.3646,-405.7063"/>
<polygon fill="#000000" stroke="#000000" points="1060.7033,-404.6557 1054.4005,-396.1395 1054.0169,-406.7274 1060.7033,-404.6557"/>
</g>
<!-- CornDog -->
<g id="node28" class="node">
<title>CornDog</title>
<polygon fill="#edf8b1" stroke="#000000" points="900.0042,-1116 827.9958,-1116 827.9958,-1080 900.0042,-1080 900.0042,-1116"/>
<text text-anchor="middle" x="864" y="-1093.8" font-family="Arial" font-size="14.00" fill="#000000">CornDog</text>
</g>
<!-- Meat&#45;&gt;CornDog -->
<g id="edge31" class="edge">
<title>Meat-&gt;CornDog</title>
<path fill="none" stroke="#000000" d="M1052.6435,-1223.7623C1013.7728,-1197.8485 942.5218,-1150.3479 899.5855,-1121.7237"/>
<polygon fill="#000000" stroke="#000000" points="901.3964,-1118.7245 891.1344,-1116.0896 897.5135,-1124.5488 901.3964,-1118.7245"/>
</g>
<!-- Gelatin -->
<g id="node31" class="node">
<title>Gelatin</title>
<polygon fill="#edf8b1" stroke="#000000" points="1040.3432,-972 979.6568,-972 979.6568,-936 1040.3432,-936 1040.3432,-972"/>
<text text-anchor="middle" x="1010" y="-949.8" font-family="Arial" font-size="14.00" fill="#000000">Gelatin</text>
</g>
<!-- Meat&#45;&gt;Gelatin -->
<g id="edge41" class="edge">
<title>Meat-&gt;Gelatin</title>
<path fill="none" stroke="#000000" d="M1075.1193,-1223.5275C1072.3891,-1213.1072 1068.9515,-1199.8407 1066,-1188 1047.5195,-1113.8598 1026.858,-1026.2022 1016.5674,-982.196"/>
<polygon fill="#000000" stroke="#000000" points="1019.9232,-981.175 1014.2405,-972.2331 1013.1067,-982.7671 1019.9232,-981.175"/>
</g>
<!-- Pie -->
<g id="node32" class="node">
<title>Pie</title>
<polygon fill="#edf8b1" stroke="#000000" points="1061,-612 1007,-612 1007,-576 1061,-576 1061,-612"/>
<text text-anchor="middle" x="1034" y="-589.8" font-family="Arial" font-size="14.00" fill="#000000">Pie</text>
</g>
<!-- Meat&#45;&gt;Pie -->
<g id="edge61" class="edge">
<title>Meat-&gt;Pie</title>
<path fill="none" stroke="#000000" d="M1078.7217,-1223.9925C1072.3322,-1133.9842 1043.8544,-732.8179 1036.0076,-622.2811"/>
<polygon fill="#000000" stroke="#000000" points="1039.4933,-621.9547 1035.2939,-612.2276 1032.5109,-622.4504 1039.4933,-621.9547"/>
</g>
<!-- MSG -->
<g id="node10" class="node">
<title>MSG</title>
<polygon fill="#edf8b1" stroke="#000000" points="1306,-684 1252,-684 1252,-648 1306,-648 1306,-684"/>
<text text-anchor="middle" x="1279" y="-661.8" font-family="Arial" font-size="14.00" fill="#000000">MSG</text>
</g>
<!-- TVDinner -->
<g id="node18" class="node">
<title>TVDinner</title>
<polygon fill="#edf8b1" stroke="#000000" points="1033.6109,-540 958.3891,-540 958.3891,-504 1033.6109,-504 1033.6109,-540"/>
<text text-anchor="middle" x="996" y="-517.8" font-family="Arial" font-size="14.00" fill="#000000">TVDinner</text>
</g>
<!-- MSG&#45;&gt;TVDinner -->
<g id="edge69" class="edge">
<title>MSG-&gt;TVDinner</title>
<path fill="none" stroke="#000000" d="M1251.8648,-652.1927C1203.0139,-627.3357 1099.8451,-574.8399 1040.5163,-544.6514"/>
<polygon fill="#000000" stroke="#000000" points="1041.8857,-541.4212 1031.3859,-540.0055 1038.7112,-547.66 1041.8857,-541.4212"/>
</g>
<!-- MSG&#45;&gt;ChineseReadyMeal -->
<g id="edge94" class="edge">
<title>MSG-&gt;ChineseReadyMeal</title>
<path fill="none" stroke="#000000" d="M1276.5621,-647.7969C1271.2022,-614.7239 1255.3923,-544.4592 1214,-504 1181.4133,-472.1479 1154.6113,-495.1304 1118,-468 1095.2286,-451.1254 1076.2488,-424.7706 1063.9969,-404.933"/>
<polygon fill="#000000" stroke="#000000" points="1066.9898,-403.1183 1058.8515,-396.3345 1060.9831,-406.7127 1066.9898,-403.1183"/>
</g>
<!-- PartyPack -->
<g id="node27" class="node">
<title>PartyPack</title>
<polygon fill="#edf8b1" stroke="#000000" points="728.7899,-180 649.2101,-180 649.2101,-144 728.7899,-144 728.7899,-180"/>
<text text-anchor="middle" x="689" y="-157.8" font-family="Arial" font-size="14.00" fill="#000000">PartyPack</text>
</g>
<!-- Beer&#45;&gt;PartyPack -->
<g id="edge98" class="edge">
<title>Beer-&gt;PartyPack</title>
<path fill="none" stroke="#000000" d="M361.1688,-1223.6178C312.8786,-1162.1467 161.6161,-956.313 133,-756 117.7847,-649.4927 195,-629.5886 195,-522 195,-522 195,-522 195,-306 195,-214.2218 513.2433,-177.0045 638.8657,-165.8885"/>
<polygon fill="#000000" stroke="#000000" points="639.3313,-169.3614 648.9924,-165.0123 638.7278,-162.3875 639.3313,-169.3614"/>
</g>
<!-- Emulsifiers -->
<g id="node12" class="node">
<title>Emulsifiers</title>
<polygon fill="#edf8b1" stroke="#000000" points="930.4345,-684 845.5655,-684 845.5655,-648 930.4345,-648 930.4345,-684"/>
<text text-anchor="middle" x="888" y="-661.8" font-family="Arial" font-size="14.00" fill="#000000">Emulsifiers</text>
</g>
<!-- Emulsifiers&#45;&gt;IceCream -->
<g id="edge49" class="edge">
<title>Emulsifiers-&gt;IceCream</title>
<path fill="none" stroke="#000000" d="M870.336,-647.8314C862.0268,-639.2848 851.9736,-628.9443 842.9082,-619.6198"/>
<polygon fill="#000000" stroke="#000000" points="845.3821,-617.1435 835.9018,-612.4133 840.3631,-622.023 845.3821,-617.1435"/>
</g>
<!-- Emulsifiers&#45;&gt;TVDinner -->
<g id="edge70" class="edge">
<title>Emulsifiers-&gt;TVDinner</title>
<path fill="none" stroke="#000000" d="M901.5516,-647.6907C915.0497,-629.4785 936.3878,-600.7559 955,-576 961.7542,-567.0163 969.1738,-557.2218 975.8228,-548.4711"/>
<polygon fill="#000000" stroke="#000000" points="978.6466,-550.5399 981.9147,-540.4616 973.0751,-546.3022 978.6466,-550.5399"/>
</g>
<!-- Hydrogen -->
<g id="node13" class="node">
<title>Hydrogen</title>
<polygon fill="#edf8b1" stroke="#000000" points="862.1809,-1260 785.8191,-1260 785.8191,-1224 862.1809,-1224 862.1809,-1260"/>
<text text-anchor="middle" x="824" y="-1237.8" font-family="Arial" font-size="14.00" fill="#000000">Hydrogen</text>
</g>
<!-- Hydrogen&#45;&gt;HOil -->
<g id="edge29" class="edge">
<title>Hydrogen-&gt;HOil</title>
<path fill="none" stroke="#000000" d="M813.1493,-1223.8314C808.2977,-1215.7079 802.4783,-1205.9637 797.132,-1197.0118"/>
<polygon fill="#000000" stroke="#000000" points="800.1292,-1195.2041 791.9968,-1188.4133 794.1194,-1198.7933 800.1292,-1195.2041"/>
</g>
<!-- Dessert -->
<g id="node29" class="node">
<title>Dessert</title>
<polygon fill="#edf8b1" stroke="#000000" points="919.2234,-396 854.7766,-396 854.7766,-360 919.2234,-360 919.2234,-396"/>
<text text-anchor="middle" x="887" y="-373.8" font-family="Arial" font-size="14.00" fill="#000000">Dessert</text>
</g>
<!-- IceCream&#45;&gt;Dessert -->
<g id="edge88" class="edge">
<title>IceCream-&gt;Dessert</title>
<path fill="none" stroke="#000000" d="M830.3437,-575.78C845.6239,-552.1206 870.9758,-508.9891 882,-468 887.4108,-447.8821 888.5463,-424.3497 888.3897,-406.3944"/>
<polygon fill="#000000" stroke="#000000" points="891.8862,-406.1944 888.1615,-396.2759 884.888,-406.3523 891.8862,-406.1944"/>
</g>
<!-- HOil&#45;&gt;IceCream -->
<g id="edge50" class="edge">
<title>HOil-&gt;IceCream</title>
<path fill="none" stroke="#000000" d="M781.0125,-1151.9471C781.2058,-1091.0055 783.0839,-887.3479 799,-720 802.2073,-686.2774 808.3755,-647.8169 812.815,-622.3515"/>
<polygon fill="#000000" stroke="#000000" points="816.3002,-622.7424 814.5981,-612.2851 809.4075,-621.5214 816.3002,-622.7424"/>
</g>
<!-- HOil&#45;&gt;Chocolate -->
<g id="edge60" class="edge">
<title>HOil-&gt;Chocolate</title>
<path fill="none" stroke="#000000" d="M753.7427,-1163.0511C696.5059,-1147.6684 560.9311,-1107.0322 462,-1044 382.2325,-993.1775 324,-976.5821 324,-882 324,-882 324,-882 324,-738 324,-697.8141 327.1444,-651.417 329.4905,-622.3918"/>
<polygon fill="#000000" stroke="#000000" points="332.9999,-622.4235 330.3424,-612.1674 326.0241,-621.8422 332.9999,-622.4235"/>
</g>
<!-- HOil&#45;&gt;CornDog -->
<g id="edge30" class="edge">
<title>HOil-&gt;CornDog</title>
<path fill="none" stroke="#000000" d="M801.9444,-1151.8314C812.0691,-1143.0485 824.3777,-1132.3712 835.3548,-1122.8489"/>
<polygon fill="#000000" stroke="#000000" points="837.8019,-1125.3595 843.0623,-1116.1628 833.2149,-1120.0718 837.8019,-1125.3595"/>
</g>
<!-- MiraclePowder -->
<g id="node37" class="node">
<title>MiraclePowder</title>
<polygon fill="#edf8b1" stroke="#000000" points="291.0521,-36 182.9479,-36 182.9479,0 291.0521,0 291.0521,-36"/>
<text text-anchor="middle" x="237" y="-13.8" font-family="Arial" font-size="14.00" fill="#000000">MiraclePowder</text>
</g>
<!-- ProteinPowder&#45;&gt;MiraclePowder -->
<g id="edge106" class="edge">
<title>ProteinPowder-&gt;MiraclePowder</title>
<path fill="none" stroke="#000000" d="M79.5584,-575.9498C86.0023,-548.8059 97,-495.775 97,-450 97,-450 97,-450 97,-162 97,-117.0781 112.0221,-104.5322 143,-72 154.8227,-59.5841 170.1337,-49.1668 184.9534,-40.8979"/>
<polygon fill="#000000" stroke="#000000" points="186.9061,-43.8232 194.0818,-36.0283 183.6113,-37.647 186.9061,-43.8232"/>
</g>
<!-- Chocolate&#45;&gt;Cake -->
<g id="edge74" class="edge">
<title>Chocolate-&gt;Cake</title>
<path fill="none" stroke="#000000" d="M336.5422,-575.8314C338.4884,-568.0463 340.8068,-558.7729 342.9663,-550.1347"/>
<polygon fill="#000000" stroke="#000000" points="346.3668,-550.9636 345.3967,-540.4133 339.5758,-549.2658 346.3668,-550.9636"/>
</g>
<!-- CateringKit -->
<g id="node25" class="node">
<title>CateringKit</title>
<polygon fill="#edf8b1" stroke="#000000" points="964.7289,-252 879.2711,-252 879.2711,-216 964.7289,-216 964.7289,-252"/>
<text text-anchor="middle" x="922" y="-229.8" font-family="Arial" font-size="14.00" fill="#000000">CateringKit</text>
</g>
<!-- TVDinner&#45;&gt;CateringKit -->
<g id="edge90" class="edge">
<title>TVDinner-&gt;CateringKit</title>
<path fill="none" stroke="#000000" d="M991.371,-503.9843C978.8602,-455.2939 944.3018,-320.7961 929.2092,-262.0573"/>
<polygon fill="#000000" stroke="#000000" points="932.5059,-260.8232 926.6273,-252.0089 925.7261,-262.5653 932.5059,-260.8232"/>
</g>
<!-- Coffee -->
<g id="node46" class="node">
<title>Coffee</title>
<ellipse fill="#7fcdbb" stroke="#000000" cx="657" cy="-450" rx="39.4602" ry="18"/>
<text text-anchor="middle" x="657" y="-445.8" font-family="Arial" font-size="14.00" fill="#000000">Coffee</text>
</g>
<!-- TVDinner&#45;&gt;Coffee -->
<!-- Caffeine -->
<g id="node20" class="node">
<title>Caffeine</title>
<polygon fill="#edf8b1" stroke="#000000" points="691.1249,-396 622.8751,-396 622.8751,-360 691.1249,-360 691.1249,-396"/>
<text text-anchor="middle" x="657" y="-373.8" font-family="Arial" font-size="14.00" fill="#000000">Caffeine</text>
</g>
<!-- Caffeine&#45;&gt;EnergyDrink -->
<g id="edge79" class="edge">
<title>Caffeine-&gt;EnergyDrink</title>
<path fill="none" stroke="#000000" d="M657,-359.8314C657,-352.131 657,-342.9743 657,-334.4166"/>
<polygon fill="#000000" stroke="#000000" points="660.5001,-334.4132 657,-324.4133 653.5001,-334.4133 660.5001,-334.4132"/>
</g>
<!-- PerkPills -->
<g id="node33" class="node">
<title>PerkPills</title>
<polygon fill="#edf8b1" stroke="#000000" points="448.4376,-324 377.5624,-324 377.5624,-288 448.4376,-288 448.4376,-324"/>
<text text-anchor="middle" x="413" y="-301.8" font-family="Arial" font-size="14.00" fill="#000000">PerkPills</text>
</g>
<!-- Caffeine&#45;&gt;PerkPills -->
<g id="edge83" class="edge">
<title>Caffeine-&gt;PerkPills</title>
<path fill="none" stroke="#000000" d="M622.8159,-367.9129C579.837,-355.2306 505.9264,-333.4209 458.2835,-319.3623"/>
<polygon fill="#000000" stroke="#000000" points="459.118,-315.9595 448.5363,-316.4861 457.1369,-322.6733 459.118,-315.9595"/>
</g>
<!-- EnergyDrink&#45;&gt;RaveJuice -->
<g id="edge82" class="edge">
<title>EnergyDrink-&gt;RaveJuice</title>
<path fill="none" stroke="#000000" d="M657,-287.8314C657,-280.131 657,-270.9743 657,-262.4166"/>
<polygon fill="#000000" stroke="#000000" points="660.5001,-262.4132 657,-252.4133 653.5001,-262.4133 660.5001,-262.4132"/>
</g>
<!-- EnergyDrink&#45;&gt;CateringKit -->
<g id="edge92" class="edge">
<title>EnergyDrink-&gt;CateringKit</title>
<path fill="none" stroke="#000000" d="M703.7667,-293.2936C750.0989,-280.7052 820.9413,-261.4575 869.2541,-248.331"/>
<polygon fill="#000000" stroke="#000000" points="870.4722,-251.627 879.2046,-245.6274 868.6368,-244.8719 870.4722,-251.627"/>
</g>
<!-- RaveJuice&#45;&gt;PartyPack -->
<g id="edge101" class="edge">
<title>RaveJuice-&gt;PartyPack</title>
<path fill="none" stroke="#000000" d="M665.075,-215.8314C668.6102,-207.8771 672.836,-198.369 676.7456,-189.5723"/>
<polygon fill="#000000" stroke="#000000" points="679.9532,-190.9729 680.8163,-180.4133 673.5565,-188.1299 679.9532,-190.9729"/>
</g>
<!-- JelloShots&#45;&gt;PartyPack -->
<g id="edge99" class="edge">
<title>JelloShots-&gt;PartyPack</title>
<path fill="none" stroke="#000000" d="M732.3437,-791.9104C729.2722,-751.9701 724.9419,-653.6365 748,-576 758.4843,-540.6995 770.2856,-535.7147 789,-504 798.5294,-487.8508 805.9213,-486.0502 811,-468 815.3336,-452.598 814.3697,-447.6411 811,-432 790.5861,-337.2453 734.1229,-235.6941 705.7417,-188.692"/>
<polygon fill="#000000" stroke="#000000" points="708.6563,-186.7492 700.4588,-180.0371 702.6814,-190.3962 708.6563,-186.7492"/>
</g>
<!-- Strawberry -->
<g id="node49" class="node">
<title>Strawberry</title>
<ellipse fill="#7fcdbb" stroke="#000000" cx="866" cy="-738" rx="57.9197" ry="18"/>
<text text-anchor="middle" x="866" y="-733.8" font-family="Arial" font-size="14.00" fill="#000000">Strawberry</text>
</g>
<!-- JelloShots&#45;&gt;Strawberry -->
<!-- Cake&#45;&gt;PartyPack -->
<g id="edge100" class="edge">
<title>Cake-&gt;PartyPack</title>
<path fill="none" stroke="#000000" d="M345.6308,-503.9831C336.4731,-461.5871 319.9401,-354.1194 369,-288 433.2599,-201.3951 566.1343,-174.2755 638.8159,-165.8135"/>
<polygon fill="#000000" stroke="#000000" points="639.5248,-169.2571 649.0874,-164.6955 638.7673,-162.2982 639.5248,-169.2571"/>
</g>
<!-- Packaging -->
<g id="node26" class="node">
<title>Packaging</title>
<polygon fill="#edf8b1" stroke="#000000" points="1217.857,-396 1136.143,-396 1136.143,-360 1217.857,-360 1217.857,-396"/>
<text text-anchor="middle" x="1177" y="-373.8" font-family="Arial" font-size="14.00" fill="#000000">Packaging</text>
</g>
<!-- Packaging&#45;&gt;CateringKit -->
<g id="edge93" class="edge">
<title>Packaging-&gt;CateringKit</title>
<path fill="none" stroke="#000000" d="M1144.9623,-359.9081C1098.7773,-333.8272 1013.4894,-285.6646 962.8399,-257.0625"/>
<polygon fill="#000000" stroke="#000000" points="964.5358,-254.0008 954.1072,-252.1311 961.0938,-260.096 964.5358,-254.0008"/>
</g>
<!-- Packaging&#45;&gt;PartyPack -->
<g id="edge102" class="edge">
<title>Packaging-&gt;PartyPack</title>
<path fill="none" stroke="#000000" d="M1160.5377,-359.9925C1128.3056,-325.9474 1053.0868,-252.3088 974,-216 896.9336,-180.6188 797.9422,-168.4192 739.2129,-164.2131"/>
<polygon fill="#000000" stroke="#000000" points="739.2937,-160.7108 729.0833,-163.5386 738.8286,-167.6953 739.2937,-160.7108"/>
</g>
<!-- SeaCucumber -->
<g id="node51" class="node">
<title>SeaCucumber</title>
<ellipse fill="#7fcdbb" stroke="#000000" cx="722" cy="-90" rx="72.9896" ry="18"/>
<text text-anchor="middle" x="722" y="-85.8" font-family="Arial" font-size="14.00" fill="#000000">SeaCucumber</text>
</g>
<!-- PartyPack&#45;&gt;SeaCucumber -->
<!-- Cactus -->
<g id="node43" class="node">
<title>Cactus</title>
<ellipse fill="#7fcdbb" stroke="#000000" cx="869" cy="-1026" rx="41.1703" ry="18"/>
<text text-anchor="middle" x="869" y="-1021.8" font-family="Arial" font-size="14.00" fill="#000000">Cactus</text>
</g>
<!-- CornDog&#45;&gt;Cactus -->
<!-- Dessert&#45;&gt;CateringKit -->
<g id="edge91" class="edge">
<title>Dessert-&gt;CateringKit</title>
<path fill="none" stroke="#000000" d="M891.4328,-359.7623C897.4288,-335.0928 908.1799,-290.8598 915.201,-261.9731"/>
<polygon fill="#000000" stroke="#000000" points="918.6423,-262.6334 917.6032,-252.0896 911.8404,-260.9801 918.6423,-262.6334"/>
</g>
<!-- Jelly&#45;&gt;JelloShots -->
<g id="edge46" class="edge">
<title>Jelly-&gt;JelloShots</title>
<path fill="none" stroke="#000000" d="M695.8695,-863.8314C701.6835,-855.6232 708.6696,-845.7606 715.0646,-836.7323"/>
<polygon fill="#000000" stroke="#000000" points="718.0331,-838.5966 720.9573,-828.4133 712.321,-834.5505 718.0331,-838.5966"/>
</g>
<!-- Jelly&#45;&gt;Dessert -->
<g id="edge87" class="edge">
<title>Jelly-&gt;Dessert</title>
<path fill="none" stroke="#000000" d="M681.5311,-863.8614C680.4824,-845.5349 680.0182,-816.5049 685,-792 705.5854,-690.742 722.6765,-667.3333 771,-576 798.0949,-524.7896 815.21,-518.277 844,-468 855.6169,-447.713 866.9395,-423.7942 875.0477,-405.7157"/>
<polygon fill="#000000" stroke="#000000" points="878.3538,-406.8938 879.203,-396.3331 871.9533,-404.0592 878.3538,-406.8938"/>
</g>
<!-- Gelatin&#45;&gt;Jelly -->
<g id="edge42" class="edge">
<title>Gelatin-&gt;Jelly</title>
<path fill="none" stroke="#000000" d="M979.8228,-947.3555C919.7909,-934.1374 785.5618,-904.5824 720.1952,-890.1898"/>
<polygon fill="#000000" stroke="#000000" points="720.8361,-886.7471 710.3174,-888.0148 719.3308,-893.5834 720.8361,-886.7471"/>
</g>
<!-- Gelatin&#45;&gt;Pie -->
<g id="edge62" class="edge">
<title>Gelatin-&gt;Pie</title>
<path fill="none" stroke="#000000" d="M1009.066,-935.9222C1006.9391,-888.4035 1003.1408,-756.1902 1020,-648 1021.3211,-639.5221 1023.4045,-630.4448 1025.5644,-622.1983"/>
<polygon fill="#000000" stroke="#000000" points="1029.0082,-622.8752 1028.2895,-612.3048 1022.2596,-621.0163 1029.0082,-622.8752"/>
</g>
<!-- Pie&#45;&gt;TVDinner -->
<g id="edge68" class="edge">
<title>Pie-&gt;TVDinner</title>
<path fill="none" stroke="#000000" d="M1024.411,-575.8314C1020.1683,-567.7925 1015.0879,-558.1666 1010.404,-549.2918"/>
<polygon fill="#000000" stroke="#000000" points="1013.4811,-547.6235 1005.7181,-540.4133 1007.2904,-550.8908 1013.4811,-547.6235"/>
</g>
<!-- Rose -->
<g id="node34" class="node">
<title>Rose</title>
<ellipse fill="#7fcdbb" stroke="#000000" cx="1510" cy="-90" rx="33.646" ry="18"/>
<text text-anchor="middle" x="1510" y="-85.8" font-family="Arial" font-size="14.00" fill="#000000">Rose</text>
</g>
<!-- Rose&#45;&gt;TurkishDelight -->
<g id="edge110" class="edge">
<title>Rose-&gt;TurkishDelight</title>
<path fill="none" stroke="#000000" d="M1495.6201,-73.3008C1488.0554,-64.5159 1478.616,-53.5541 1470.141,-43.7121"/>
<polygon fill="#000000" stroke="#000000" points="1472.7827,-41.416 1463.6052,-36.1222 1467.4783,-45.9837 1472.7827,-41.416"/>
</g>
<!-- Carrots -->
<g id="node38" class="node">
<title>Carrots</title>
<ellipse fill="#7fcdbb" stroke="#000000" cx="1071" cy="-1674" rx="42.8732" ry="18"/>
<text text-anchor="middle" x="1071" y="-1669.8" font-family="Arial" font-size="14.00" fill="#000000">Carrots</text>
</g>
<!-- Carrots&#45;&gt;Vitamins -->
<g id="edge14" class="edge">
<title>Carrots-&gt;Vitamins</title>
<path fill="none" stroke="#000000" d="M1030.1825,-1668.1689C936.9133,-1654.8448 708.7664,-1622.2523 611.7921,-1608.3989"/>
<polygon fill="#000000" stroke="#000000" points="612.1215,-1604.9105 601.727,-1606.961 611.1314,-1611.8401 612.1215,-1604.9105"/>
</g>
<!-- Carrots&#45;&gt;TVDinner -->
<g id="edge67" class="edge">
<title>Carrots-&gt;TVDinner</title>
<path fill="none" stroke="#000000" d="M1112.1632,-1668.8196C1179.252,-1659.9157 1308.8262,-1640.6632 1350,-1620 1402.8538,-1593.4752 1448,-1589.1362 1448,-1530 1448,-1530 1448,-1530 1448,-1170 1448,-1110.147 1353.709,-693.6508 1315,-648 1245.1688,-565.6456 1114.2129,-536.7413 1043.7613,-526.8862"/>
<polygon fill="#000000" stroke="#000000" points="1044.194,-523.413 1033.8203,-525.5663 1043.2727,-530.3521 1044.194,-523.413"/>
</g>
<!-- Carrots&#45;&gt;Potatoes -->
<!-- Sunflower -->
<g id="node39" class="node">
<title>Sunflower</title>
<ellipse fill="#7fcdbb" stroke="#000000" cx="1400" cy="-1674" rx="53.9252" ry="18"/>
<text text-anchor="middle" x="1400" y="-1669.8" font-family="Arial" font-size="14.00" fill="#000000">Sunflower</text>
</g>
<!-- Sunflower&#45;&gt;Oil -->
<g id="edge16" class="edge">
<title>Sunflower-&gt;Oil</title>
<path fill="none" stroke="#000000" d="M1379.6192,-1656.937C1368.8841,-1647.9495 1355.5197,-1636.7607 1343.6585,-1626.8304"/>
<polygon fill="#000000" stroke="#000000" points="1345.6523,-1623.9349 1335.7379,-1620.1992 1341.1587,-1629.3022 1345.6523,-1623.9349"/>
</g>
<!-- Sunflower&#45;&gt;Meat -->
<g id="edge24" class="edge">
<title>Sunflower-&gt;Meat</title>
<path fill="none" stroke="#000000" d="M1424.6747,-1657.9458C1437.5579,-1648.3711 1452.5611,-1635.1417 1462,-1620 1483.8997,-1584.8691 1486,-1571.3978 1486,-1530 1486,-1530 1486,-1530 1486,-1386 1486,-1308.1699 1217.6304,-1261.7101 1117.2733,-1247.0573"/>
<polygon fill="#000000" stroke="#000000" points="1117.6651,-1243.5778 1107.2692,-1245.6212 1116.6704,-1250.5067 1117.6651,-1243.5778"/>
</g>
<!-- Potatoes&#45;&gt;Chips -->
<g id="edge17" class="edge">
<title>Potatoes-&gt;Chips</title>
<path fill="none" stroke="#000000" d="M1116.0436,-1522.7075C1165.3636,-1514.0985 1246.4326,-1498.1049 1314,-1476 1315.4315,-1475.5317 1316.8812,-1475.0311 1318.3381,-1474.5059"/>
<polygon fill="#000000" stroke="#000000" points="1319.8959,-1477.6552 1327.9418,-1470.7621 1317.3534,-1471.1333 1319.8959,-1477.6552"/>
</g>
<!-- Potatoes&#45;&gt;Ethanol -->
<g id="edge20" class="edge">
<title>Potatoes-&gt;Ethanol</title>
<path fill="none" stroke="#000000" d="M1027.9793,-1521.0992C960.8316,-1507.2065 831.914,-1480.5339 765.2453,-1466.7404"/>
<polygon fill="#000000" stroke="#000000" points="765.6006,-1463.2399 755.0989,-1464.6411 764.1823,-1470.0947 765.6006,-1463.2399"/>
</g>
<!-- Potatoes&#45;&gt;Pie -->
<g id="edge64" class="edge">
<title>Potatoes-&gt;Pie</title>
<path fill="none" stroke="#000000" d="M1114.2003,-1521.2622C1157.9742,-1511.5283 1221.5244,-1494.6834 1238,-1476 1329.5523,-1372.1796 1296,-1308.4214 1296,-1170 1296,-1170 1296,-1170 1296,-1098 1296,-916.5926 1217.7531,-884.8336 1142,-720 1126.9761,-687.309 1128.1125,-675.5723 1105,-648 1094.9768,-636.0427 1081.8461,-625.1333 1069.6063,-616.299"/>
<polygon fill="#000000" stroke="#000000" points="1071.5295,-613.3732 1061.324,-610.5271 1067.5271,-619.1162 1071.5295,-613.3732"/>
</g>
<!-- Potatoes&#45;&gt;TurkishDelight -->
<g id="edge112" class="edge">
<title>Potatoes-&gt;TurkishDelight</title>
<path fill="none" stroke="#000000" d="M1114.9501,-1521.8659C1164.6849,-1511.9645 1241.8001,-1494.2893 1265,-1476 1325.0274,-1428.6782 1448,-1166.2675 1448,-954 1448,-954 1448,-954 1448,-162 1448,-121.876 1448,-75.4631 1448,-46.4177"/>
<polygon fill="#000000" stroke="#000000" points="1451.5001,-46.1853 1448,-36.1854 1444.5001,-46.1854 1451.5001,-46.1853"/>
</g>
<!-- Potatoes&#45;&gt;Seaweed -->
<!-- Apples -->
<g id="node41" class="node">
<title>Apples</title>
<ellipse fill="#7fcdbb" stroke="#000000" cx="731" cy="-1530" rx="40.606" ry="18"/>
<text text-anchor="middle" x="731" y="-1525.8" font-family="Arial" font-size="14.00" fill="#000000">Apples</text>
</g>
<!-- Apples&#45;&gt;HardCider -->
<g id="edge23" class="edge">
<title>Apples-&gt;HardCider</title>
<path fill="none" stroke="#000000" d="M712.3682,-1513.6423C702.0743,-1503.6897 689.8243,-1490.1897 682,-1476 671.3464,-1456.6791 664.9555,-1432.4741 661.3054,-1414.0337"/>
<polygon fill="#000000" stroke="#000000" points="664.7467,-1413.3946 659.5057,-1404.1868 657.8607,-1414.6531 664.7467,-1413.3946"/>
</g>
<!-- Apples&#45;&gt;Dessert -->
<g id="edge89" class="edge">
<title>Apples-&gt;Dessert</title>
<path fill="none" stroke="#000000" d="M770.3221,-1525.552C862.4852,-1513.0053 1093.9265,-1468.8336 1217,-1332 1330.4603,-1205.8544 1309.9711,-1138.2168 1344,-972 1372.8883,-830.8931 1412.0519,-770.9345 1337,-648 1312.7551,-608.287 1298.7974,-603.1347 1261,-576 1148.9939,-495.5908 1000.2112,-426.6657 928.7691,-395.6012"/>
<polygon fill="#000000" stroke="#000000" points="929.7814,-392.2259 919.2135,-391.4719 927.0046,-398.6516 929.7814,-392.2259"/>
</g>
<!-- Corn -->
<g id="node42" class="node">
<title>Corn</title>
<ellipse fill="#7fcdbb" stroke="#000000" cx="529" cy="-1314" rx="31.9185" ry="18"/>
<text text-anchor="middle" x="529" y="-1309.8" font-family="Arial" font-size="14.00" fill="#000000">Corn</text>
</g>
<!-- Corn&#45;&gt;HFCS -->
<g id="edge39" class="edge">
<title>Corn-&gt;HFCS</title>
<path fill="none" stroke="#000000" d="M530.1722,-1295.6526C533.925,-1236.9129 545.6621,-1053.2013 550.1916,-982.3047"/>
<polygon fill="#000000" stroke="#000000" points="553.6854,-982.5133 550.8302,-972.3104 546.6996,-982.0669 553.6854,-982.5133"/>
</g>
<!-- Corn&#45;&gt;Eggs -->
<g id="edge52" class="edge">
<title>Corn-&gt;Eggs</title>
<path fill="none" stroke="#000000" d="M508.6418,-1299.6318C479.8964,-1278.3538 427.5217,-1235.7948 397,-1188 291.264,-1022.425 269.5019,-777.0958 265.0966,-694.3918"/>
<polygon fill="#000000" stroke="#000000" points="268.5854,-694.075 264.6022,-684.2575 261.5938,-694.4162 268.5854,-694.075"/>
</g>
<!-- Corn&#45;&gt;CornDog -->
<g id="edge32" class="edge">
<title>Corn-&gt;CornDog</title>
<path fill="none" stroke="#000000" d="M559.1929,-1307.8206C616.0549,-1294.8078 740.1995,-1259.6864 817,-1188 835.2156,-1170.9974 847.6451,-1145.3302 855.1245,-1125.7516"/>
<polygon fill="#000000" stroke="#000000" points="858.4884,-1126.7407 858.5889,-1116.1463 851.9036,-1124.3657 858.4884,-1126.7407"/>
</g>
<!-- Cactus&#45;&gt;Tequila -->
<g id="edge37" class="edge">
<title>Cactus-&gt;Tequila</title>
<path fill="none" stroke="#000000" d="M842.6502,-1011.9468C823.0922,-1001.5158 796.0808,-987.1098 773.8839,-975.2714"/>
<polygon fill="#000000" stroke="#000000" points="775.486,-972.1592 765.0154,-970.5415 772.1919,-978.3357 775.486,-972.1592"/>
</g>
<!-- Cactus&#45;&gt;Packaging -->
<g id="edge86" class="edge">
<title>Cactus-&gt;Packaging</title>
<path fill="none" stroke="#000000" d="M906.7815,-1018.4949C952.9944,-1008.6756 1027.7132,-990.529 1049,-972 1085.9822,-939.8089 1176.9767,-786.3719 1230,-468 1232.6285,-452.2174 1236.0538,-446.8105 1230,-432 1225.5408,-421.0907 1217.6975,-411.1954 1209.3897,-402.9434"/>
<polygon fill="#000000" stroke="#000000" points="1211.7552,-400.3637 1202.0428,-396.1305 1206.9955,-405.4965 1211.7552,-400.3637"/>
</g>
<!-- Cactus&#45;&gt;Strawberry -->
<!-- Wheat -->
<g id="node44" class="node">
<title>Wheat</title>
<ellipse fill="#7fcdbb" stroke="#000000" cx="1077" cy="-1314" rx="38.8806" ry="18"/>
<text text-anchor="middle" x="1077" y="-1309.8" font-family="Arial" font-size="14.00" fill="#000000">Wheat</text>
</g>
<!-- Wheat&#45;&gt;MSG -->
<g id="edge65" class="edge">
<title>Wheat-&gt;MSG</title>
<path fill="none" stroke="#000000" d="M1106.0455,-1301.7027C1123.764,-1292.7092 1145.3646,-1278.795 1158,-1260 1222.153,-1164.5729 1264.9471,-799.2663 1276.1035,-694.3367"/>
<polygon fill="#000000" stroke="#000000" points="1279.6046,-694.5093 1277.1686,-684.1984 1272.6429,-693.7779 1279.6046,-694.5093"/>
</g>
<!-- Wheat&#45;&gt;Beer -->
<g id="edge35" class="edge">
<title>Wheat-&gt;Beer</title>
<path fill="none" stroke="#000000" d="M1048.2017,-1301.736C1041.9666,-1299.4965 1035.3395,-1297.4219 1029,-1296 910.2106,-1269.3567 533.5778,-1249.5171 413.3042,-1243.7293"/>
<polygon fill="#000000" stroke="#000000" points="413.2844,-1240.2244 403.129,-1243.2438 412.9508,-1247.2165 413.2844,-1240.2244"/>
</g>
<!-- Wheat&#45;&gt;Cake -->
<g id="edge73" class="edge">
<title>Wheat-&gt;Cake</title>
<path fill="none" stroke="#000000" d="M1055.0344,-1298.8007C1011.0422,-1268.7044 908.4915,-1200.2673 817,-1152 711.3897,-1096.2842 664.8831,-1117.7817 571,-1044 394.496,-905.2874 467.6008,-783.1115 381,-576 377.2025,-566.9181 372.1842,-557.4646 367.2941,-549.053"/>
<polygon fill="#000000" stroke="#000000" points="370.2488,-547.1747 362.1019,-540.4013 364.2467,-550.7768 370.2488,-547.1747"/>
</g>
<!-- Wheat&#45;&gt;Pie -->
<g id="edge63" class="edge">
<title>Wheat-&gt;Pie</title>
<path fill="none" stroke="#000000" d="M1092.6061,-1297.3965C1101.0581,-1287.362 1110.8081,-1273.862 1116,-1260 1163.9007,-1132.1079 1144,-1090.5682 1144,-954 1144,-954 1144,-954 1144,-810 1144,-734.1739 1089.5067,-658.0819 1057.2294,-619.6622"/>
<polygon fill="#000000" stroke="#000000" points="1059.871,-617.3658 1050.7066,-612.0493 1054.5553,-621.9204 1059.871,-617.3658"/>
</g>
<!-- Seaweed&#45;&gt;Meat -->
<g id="edge25" class="edge">
<title>Seaweed-&gt;Meat</title>
<path fill="none" stroke="#000000" d="M993.6345,-1298.0209C1008.4005,-1288.4429 1027.4404,-1276.0927 1043.884,-1265.4266"/>
<polygon fill="#000000" stroke="#000000" points="1046.2237,-1268.0808 1052.7086,-1259.7025 1042.4143,-1262.2081 1046.2237,-1268.0808"/>
</g>
<!-- Seaweed&#45;&gt;Emulsifiers -->
<g id="edge47" class="edge">
<title>Seaweed-&gt;Emulsifiers</title>
<path fill="none" stroke="#000000" d="M970.2812,-1295.5162C970.9399,-1285.0924 971.6717,-1271.8262 972,-1260 972.4439,-1244.0062 972.4672,-1239.9932 972,-1224 967.5537,-1071.8052 952,-1034.2597 952,-882 952,-882 952,-882 952,-810 952,-769.1184 950.8335,-756.7869 933,-720 928.159,-710.014 921.079,-700.3086 913.9615,-691.9445"/>
<polygon fill="#000000" stroke="#000000" points="916.4694,-689.4982 907.1979,-684.3709 911.2484,-694.1609 916.4694,-689.4982"/>
</g>
<!-- Seaweed&#45;&gt;ProteinPowder -->
<g id="edge55" class="edge">
<title>Seaweed-&gt;ProteinPowder</title>
<path fill="none" stroke="#000000" d="M924.4984,-1304.7495C884.9024,-1295.7585 825.8653,-1280.4676 777,-1260 598.5291,-1185.2461 551.9403,-1162.5296 399,-1044 331.0502,-991.3385 177.8663,-830.7891 133,-756 106.9299,-712.5429 89.9422,-655.5434 81.4476,-622.0322"/>
<polygon fill="#000000" stroke="#000000" points="84.7735,-620.8995 78.9874,-612.0242 77.9759,-622.5706 84.7735,-620.8995"/>
</g>
<!-- Seaweed&#45;&gt;Cactus -->
<!-- Coffee&#45;&gt;Caffeine -->
<g id="edge76" class="edge">
<title>Coffee-&gt;Caffeine</title>
<path fill="none" stroke="#000000" d="M657,-431.8314C657,-424.131 657,-414.9743 657,-406.4166"/>
<polygon fill="#000000" stroke="#000000" points="660.5001,-406.4132 657,-396.4133 653.5001,-406.4133 660.5001,-406.4132"/>
</g>
<!-- Coffee&#45;&gt;MiraclePowder -->
<g id="edge108" class="edge">
<title>Coffee-&gt;MiraclePowder</title>
<path fill="none" stroke="#000000" d="M640.7929,-433.3298C576.5337,-367.2347 339.4043,-123.3301 261.7776,-43.4855"/>
<polygon fill="#000000" stroke="#000000" points="264.2547,-41.0125 254.7744,-36.2823 259.2358,-45.892 264.2547,-41.0125"/>
</g>
<!-- Coffee&#45;&gt;SeaCucumber -->
<!-- Bamboo -->
<g id="node47" class="node">
<title>Bamboo</title>
<ellipse fill="#7fcdbb" stroke="#000000" cx="1174" cy="-450" rx="46.9864" ry="18"/>
<text text-anchor="middle" x="1174" y="-445.8" font-family="Arial" font-size="14.00" fill="#000000">Bamboo</text>
</g>
<!-- Bamboo&#45;&gt;ChineseReadyMeal -->
<g id="edge96" class="edge">
<title>Bamboo-&gt;ChineseReadyMeal</title>
<path fill="none" stroke="#000000" d="M1147.7959,-434.9064C1130.8621,-425.1526 1108.4883,-412.2653 1089.3152,-401.2216"/>
<polygon fill="#000000" stroke="#000000" points="1090.8933,-398.0915 1080.481,-396.133 1087.3994,-404.1572 1090.8933,-398.0915"/>
</g>
<!-- Bamboo&#45;&gt;Packaging -->
<g id="edge85" class="edge">
<title>Bamboo-&gt;Packaging</title>
<path fill="none" stroke="#000000" d="M1174.757,-431.8314C1175.0779,-424.131 1175.4594,-414.9743 1175.816,-406.4166"/>
<polygon fill="#000000" stroke="#000000" points="1179.3133,-406.5503 1176.2328,-396.4133 1172.3194,-406.2589 1179.3133,-406.5503"/>
</g>
<!-- Lime -->
<g id="node48" class="node">
<title>Lime</title>
<ellipse fill="#7fcdbb" stroke="#000000" cx="612" cy="-1026" rx="31.9185" ry="18"/>
<text text-anchor="middle" x="612" y="-1021.8" font-family="Arial" font-size="14.00" fill="#000000">Lime</text>
</g>
<!-- Lime&#45;&gt;EnergyDrink -->
<g id="edge77" class="edge">
<title>Lime-&gt;EnergyDrink</title>
<path fill="none" stroke="#000000" d="M610.0861,-1007.6665C604.7337,-954.7522 590,-797.1818 590,-666 590,-666 590,-666 590,-450 590,-408.6022 595.3793,-396.9736 614,-360 618.9837,-350.1043 625.976,-340.3132 632.8761,-331.8418"/>
<polygon fill="#000000" stroke="#000000" points="635.5909,-334.0521 639.3949,-324.1637 630.2547,-329.5216 635.5909,-334.0521"/>
</g>
<!-- Lime&#45;&gt;Jelly -->
<g id="edge43" class="edge">
<title>Lime-&gt;Jelly</title>
<path fill="none" stroke="#000000" d="M622.0843,-1008.6788C628.0816,-998.178 635.7197,-984.4474 642,-972 652.4414,-951.3055 663.2722,-927.409 671.1779,-909.4426"/>
<polygon fill="#000000" stroke="#000000" points="674.4506,-910.6941 675.2481,-900.1293 668.0364,-907.8909 674.4506,-910.6941"/>
</g>
<!-- Strawberry&#45;&gt;Emulsifiers -->
<!-- Strawberry&#45;&gt;IceCream -->
<g id="edge48" class="edge">
<title>Strawberry-&gt;IceCream</title>
<path fill="none" stroke="#000000" d="M854.7213,-720.1096C848.7004,-709.8714 841.6032,-696.5932 837,-684 829.6212,-663.8138 824.7495,-639.9775 821.7882,-621.9082"/>
<polygon fill="#000000" stroke="#000000" points="825.2446,-621.3564 820.2609,-612.0069 818.3264,-622.4236 825.2446,-621.3564"/>
</g>
<!-- Strawberry&#45;&gt;Parfume -->
<g id="edge104" class="edge">
<title>Strawberry-&gt;Parfume</title>
<path fill="none" stroke="#000000" d="M893.2583,-721.9506C908.0602,-712.2883 925.9483,-698.973 939,-684 974.9398,-642.7697 958.1009,-613.4122 998,-576 1080.9677,-498.2037 1159.2303,-557.0368 1230,-468 1255.4377,-435.9964 1249,-418.8816 1249,-378 1249,-378 1249,-378 1249,-162 1249,-121.876 1249,-75.4631 1249,-46.4177"/>
<polygon fill="#000000" stroke="#000000" points="1252.5001,-46.1853 1249,-36.1854 1245.5001,-46.1854 1252.5001,-46.1853"/>
</g>
<!-- Strawberry&#45;&gt;Coffee -->
<!-- Cocoa -->
<g id="node50" class="node">
<title>Cocoa</title>
<ellipse fill="#7fcdbb" stroke="#000000" cx="181" cy="-738" rx="38.8825" ry="18"/>
<text text-anchor="middle" x="181" y="-733.8" font-family="Arial" font-size="14.00" fill="#000000">Cocoa</text>
</g>
<!-- Cocoa&#45;&gt;Chocolate -->
<g id="edge58" class="edge">
<title>Cocoa-&gt;Chocolate</title>
<path fill="none" stroke="#000000" d="M186.6616,-720.1133C193.6725,-700.3736 207.2848,-668.6665 228,-648 243.4012,-632.635 264.082,-620.6843 282.9445,-611.9763"/>
<polygon fill="#000000" stroke="#000000" points="284.5803,-615.0801 292.315,-607.8395 281.7532,-608.6763 284.5803,-615.0801"/>
</g>
<!-- Cocoa&#45;&gt;MiraclePowder -->
<g id="edge109" class="edge">
<title>Cocoa-&gt;MiraclePowder</title>
<path fill="none" stroke="#000000" d="M176.0272,-719.9753C168.9974,-692.864 157,-639.8742 157,-594 157,-594 157,-594 157,-162 157,-115.9277 188.6802,-70.8164 212.1688,-43.7014"/>
<polygon fill="#000000" stroke="#000000" points="214.8025,-46.0067 218.8468,-36.2141 209.5785,-41.3474 214.8025,-46.0067"/>
</g>
<!-- SeaCucumber&#45;&gt;Parfume -->
<g id="edge103" class="edge">
<title>SeaCucumber-&gt;Parfume</title>
<path fill="none" stroke="#000000" d="M785.8309,-81.2793C894.126,-66.4837 1111.1785,-36.8295 1204.5837,-24.0683"/>
<polygon fill="#000000" stroke="#000000" points="1205.1206,-27.5275 1214.5547,-22.706 1204.173,-20.5919 1205.1206,-27.5275"/>
</g>
<!-- SeaCucumber&#45;&gt;MiraclePowder -->
<g id="edge107" class="edge">
<title>SeaCucumber-&gt;MiraclePowder</title>
<path fill="none" stroke="#000000" d="M659.5876,-80.7347C567.1434,-67.011 394.7085,-41.4124 301.229,-27.535"/>
<polygon fill="#000000" stroke="#000000" points="301.7384,-24.0724 291.3328,-26.0659 300.7104,-30.9965 301.7384,-24.0724"/>
</g>
<!-- Chalk -->
<g id="node52" class="node">
<title>Chalk</title>
<polygon fill="#2c7fb8" stroke="#000000" points="134,-1692 83.4805,-1674 134,-1656 184.5195,-1674 134,-1692"/>
<text text-anchor="middle" x="134" y="-1669.8" font-family="Arial" font-size="14.00" fill="#000000">Chalk</text>
</g>
<!-- Chalk&#45;&gt;Vitamins -->
<g id="edge15" class="edge">
<title>Chalk-&gt;Vitamins</title>
<path fill="none" stroke="#000000" d="M168.7023,-1668.2296C246.6108,-1655.2749 435.365,-1623.8885 522.0779,-1609.4697"/>
<polygon fill="#000000" stroke="#000000" points="522.842,-1612.8908 532.1325,-1607.7978 521.6938,-1605.9856 522.842,-1612.8908"/>
</g>
<!-- Chalk&#45;&gt;ProteinPowder -->
<g id="edge56" class="edge">
<title>Chalk-&gt;ProteinPowder</title>
<path fill="none" stroke="#000000" d="M112.4706,-1663.479C74.5919,-1643.2811 0,-1595.2261 0,-1530 0,-1530 0,-1530 0,-738 0,-692.7853 29.4458,-647.6965 51.4368,-620.3276"/>
<polygon fill="#000000" stroke="#000000" points="54.3004,-622.357 57.9813,-612.4221 48.9084,-617.8931 54.3004,-622.357"/>
</g>
<!-- Chalk&#45;&gt;PerkPills -->
<g id="edge84" class="edge">
<title>Chalk-&gt;PerkPills</title>
<path fill="none" stroke="#000000" d="M134,-1655.8146C134,-1628.4983 134,-1575.25 134,-1530 134,-1530 134,-1530 134,-1170 134,-918.468 335.789,-919.5571 424,-684 470.2371,-560.5293 437.1633,-398.1635 420.7574,-333.9055"/>
<polygon fill="#000000" stroke="#000000" points="424.1108,-332.8949 418.1889,-324.1095 417.3397,-334.6703 424.1108,-332.8949"/>
</g>
<!-- Salt -->
<g id="node53" class="node">
<title>Salt</title>
<polygon fill="#2c7fb8" stroke="#000000" points="1381,-1548 1341.7325,-1530 1381,-1512 1420.2675,-1530 1381,-1548"/>
<text text-anchor="middle" x="1381" y="-1525.8" font-family="Arial" font-size="14.00" fill="#000000">Salt</text>
</g>
<!-- Salt&#45;&gt;Chips -->
<g id="edge18" class="edge">
<title>Salt-&gt;Chips</title>
<path fill="none" stroke="#000000" d="M1375.3584,-1514.3771C1372.3433,-1506.0277 1368.5409,-1495.498 1365.0408,-1485.8052"/>
<polygon fill="#000000" stroke="#000000" points="1368.2368,-1484.3505 1361.5483,-1476.1338 1361.6529,-1486.7281 1368.2368,-1484.3505"/>
</g>
<!-- Salt&#45;&gt;MSG -->
<g id="edge66" class="edge">
<title>Salt-&gt;MSG</title>
<path fill="none" stroke="#000000" d="M1384.8528,-1513.5654C1387.1468,-1502.9215 1389.8319,-1488.7226 1391,-1476 1392.4628,-1460.067 1392.1487,-1455.9587 1391,-1440 1369.863,-1146.3345 1304.1727,-794.8167 1284.5744,-694.1666"/>
<polygon fill="#000000" stroke="#000000" points="1287.9752,-693.3203 1282.62,-684.1785 1281.1055,-694.6645 1287.9752,-693.3203"/>
</g>
<!-- Water -->
<g id="node54" class="node">
<title>Water</title>
<polygon fill="#2c7fb8" stroke="#000000" points="589,-1548 536.9513,-1530 589,-1512 641.0487,-1530 589,-1548"/>
<text text-anchor="middle" x="589" y="-1525.8" font-family="Arial" font-size="14.00" fill="#000000">Water</text>
</g>
<!-- Water&#45;&gt;Ethanol -->
<g id="edge21" class="edge">
<title>Water-&gt;Ethanol</title>
<path fill="none" stroke="#000000" d="M609.6438,-1518.9078C628.9128,-1508.5543 658.2152,-1492.8098 682.2003,-1479.9222"/>
<polygon fill="#000000" stroke="#000000" points="683.9482,-1482.9564 691.1005,-1475.14 680.6349,-1476.7901 683.9482,-1482.9564"/>
</g>
<!-- Water&#45;&gt;HFCS -->
<g id="edge40" class="edge">
<title>Water-&gt;HFCS</title>
<path fill="none" stroke="#000000" d="M546.8302,-1526.4803C471.3577,-1517.6271 321,-1487.2802 321,-1386 321,-1386 321,-1386 321,-1314 321,-1167.597 457.9994,-1033.1815 520.9887,-979.1175"/>
<polygon fill="#000000" stroke="#000000" points="523.6371,-981.4612 529.0063,-972.3276 519.1132,-976.1194 523.6371,-981.4612"/>
</g>
<!-- Water&#45;&gt;Eggs -->
<g id="edge53" class="edge">
<title>Water-&gt;Eggs</title>
<path fill="none" stroke="#000000" d="M546.9032,-1526.4146C495.1422,-1520.8166 405.4932,-1507.206 335,-1476 272.4019,-1448.289 210,-1454.4574 210,-1386 210,-1386 210,-1386 210,-954 210,-857.1493 239.8658,-745.0676 255.1758,-693.9743"/>
<polygon fill="#000000" stroke="#000000" points="258.5545,-694.8935 258.1183,-684.3077 251.8578,-692.855 258.5545,-694.8935"/>
</g>
<!-- Water&#45;&gt;Tequila -->
<g id="edge38" class="edge">
<title>Water-&gt;Tequila</title>
<path fill="none" stroke="#000000" d="M589,-1511.8146C589,-1484.4983 589,-1431.25 589,-1386 589,-1386 589,-1386 589,-1170 589,-1126.6636 670.4762,-1026.9259 711.279,-979.6951"/>
<polygon fill="#000000" stroke="#000000" points="714.009,-981.8895 717.9284,-972.0463 708.7262,-977.2969 714.009,-981.8895"/>
</g>
<!-- Water&#45;&gt;Meat -->
<g id="edge26" class="edge">
<title>Water-&gt;Meat</title>
<path fill="none" stroke="#000000" d="M621.7013,-1523.1632C728.9365,-1500.0001 1066.4109,-1420.9571 1125,-1332 1138.5364,-1311.4474 1123.5478,-1286.2607 1107.3293,-1267.7639"/>
<polygon fill="#000000" stroke="#000000" points="1109.7509,-1265.228 1100.3828,-1260.2793 1104.6202,-1269.9899 1109.7509,-1265.228"/>
</g>
<!-- Water&#45;&gt;Beer -->
<g id="edge34" class="edge">
<title>Water-&gt;Beer</title>
<path fill="none" stroke="#000000" d="M574.4146,-1516.9207C541.742,-1486.9812 461.7318,-1410.015 413,-1332 400.7663,-1312.4151 391.0484,-1288.0865 384.6474,-1269.6632"/>
<polygon fill="#000000" stroke="#000000" points="387.9386,-1268.4692 381.4376,-1260.1033 381.3026,-1270.6973 387.9386,-1268.4692"/>
</g>
<!-- Water&#45;&gt;Hydrogen -->
<g id="edge27" class="edge">
<title>Water-&gt;Hydrogen</title>
<path fill="none" stroke="#000000" d="M622.7824,-1523.6442C667.9312,-1514.4894 744.5341,-1496.4295 764,-1476 818.6,-1418.697 825.3053,-1318.708 825.059,-1270.1136"/>
<polygon fill="#000000" stroke="#000000" points="828.557,-1269.9547 824.9015,-1260.0105 821.5579,-1270.0639 828.557,-1269.9547"/>
</g>
<!-- CO2 -->
<g id="node55" class="node">
<title>CO2</title>
<polygon fill="#2c7fb8" stroke="#000000" points="758,-468 714.134,-450 758,-432 801.866,-450 758,-468"/>
<text text-anchor="middle" x="758" y="-445.8" font-family="Arial" font-size="14.00" fill="#000000">CO2</text>
</g>
<!-- CO2&#45;&gt;Caffeine -->
<g id="edge75" class="edge">
<title>CO2-&gt;Caffeine</title>
<path fill="none" stroke="#000000" d="M741.7726,-438.432C727.9714,-428.5935 707.704,-414.1454 690.4469,-401.8433"/>
<polygon fill="#000000" stroke="#000000" points="692.433,-398.9609 682.2586,-396.0061 688.3697,-404.6609 692.433,-398.9609"/>
</g>
<!-- CO2&#45;&gt;EnergyDrink -->
<g id="edge80" class="edge">
<title>CO2-&gt;EnergyDrink</title>
<path fill="none" stroke="#000000" d="M749.193,-435.3638C738.1855,-417.3056 718.5329,-385.8246 700,-360 693.3282,-350.7032 685.6513,-340.8292 678.6472,-332.1018"/>
<polygon fill="#000000" stroke="#000000" points="681.2098,-329.705 672.1929,-324.142 675.7726,-334.1138 681.2098,-329.705"/>
</g>
</g>
</svg>