<?xml version="1.0" encoding="UTF-8" standalone="no"?><!DOCTYPE svg PUBLIC "-//W3C//DTD SVG 1.1//EN" "http://www.w3.org/Graphics/SVG/1.1/DTD/svg11.dtd"><!-- Generated by graphviz version 2.40.1 (20161225.0304)
 --><!-- Title: G Pages: 1 --><svg xmlns="http://www.w3.org/2000/svg" xmlns:xlink="http://www.w3.org/1999/xlink" width="1560pt" height="1700pt" viewBox="0.00 0.00 1559.93 1700.00">
<g id="graph0" class="graph" transform="scale(1 1) rotate(0) translate(4 1696)">
<title>G</title>
<polygon fill="#ffffff" stroke="transparent" points="-4,4 -4,-1696 1555.9279,-1696 1555.9279,4 -4,4"/>
<!-- Vitamins -->
<g id="node1" class="node">
<title>Vitamins</title>
<polygon fill="#edf8b1" stroke="#000000" points="227.667,-1620 158.333,-1620 158.333,-1584 227.667,-1584 227.667,-1620"/>
<text text-anchor="middle" x="193" y="-1597.8" font-family="Arial" font-size="14.00" fill="#000000">Vitamins</text>
</g>
<!-- ProteinPowder -->
<g id="node16" class="node">
<title>ProteinPowder</title>
<polygon fill="#edf8b1" stroke="#000000" points="173.794,-612 66.206,-612 66.206,-576 173.794,-576 173.794,-612"/>
<text text-anchor="middle" x="120" y="-589.8" font-family="Arial" font-size="14.00" fill="#000000">ProteinPowder</text>
</g>
<!-- Vitamins&#45;&gt;ProteinPowder -->
<g id="edge57" class="edge">
<title>Vitamins-&gt;ProteinPowder</title>
<path fill="none" stroke="#000000" d="M170.9318,-1583.8366C160.6401,-1574.218 149.1194,-1561.5939 142,-1548 123.0331,-1511.7845 123,-1498.8816 123,-1458 123,-1458 123,-1458 123,-738 123,-697.8673 121.8208,-651.4566 120.9411,-622.414"/>
<polygon fill="#000000" stroke="#000000" points="124.4321,-622.0687 120.6216,-612.1828 117.4355,-622.2872 124.4321,-622.0687"/>
</g>
<!-- Potatoes -->
<g id="node40" class="node">
<title>Potatoes</title>
<ellipse fill="#7fcdbb" stroke="#000000" cx="300" cy="-1530" rx="49.2919" ry="18"/>
<text text-anchor="middle" x="300" y="-1525.8" font-family="Arial" font-size="14.00" fill="#000000">Potatoes</text>
</g>
<!-- Vitamins&#45;&gt;Potatoes -->
<!-- Oil -->
<g id="node2" class="node">
<title>Oil</title>
<polygon fill="#edf8b1" stroke="#000000" points="1376,-1620 1322,-1620 1322,-1584 1376,-1584 1376,-1620"/>
<text text-anchor="middle" x="1349" y="-1597.8" font-family="Arial" font-size="14.00" fill="#000000">Oil</text>
</g>
<!-- Chips -->
<g id="node3" class="node">
<title>Chips</title>
<polygon fill="#edf8b1" stroke="#000000" points="1417,-1476 1363,-1476 1363,-1440 1417,-1440 1417,-1476"/>
<text text-anchor="middle" x="1390" y="-1453.8" font-family="Arial" font-size="14.00" fill="#000000">Chips</text>
</g>
<!-- Oil&#45;&gt;Chips -->
<g id="edge19" class="edge">
<title>Oil-&gt;Chips</title>
<path fill="none" stroke="#000000" d="M1351.8523,-1583.8294C1354.9614,-1565.4779 1360.511,-1536.4289 1368,-1512 1370.6871,-1503.2348 1374.2262,-1493.9133 1377.6783,-1485.526"/>
<polygon fill="#000000" stroke="#000000" points="1380.9518,-1486.7713 1381.6344,-1476.1984 1374.5075,-1484.038 1380.9518,-1486.7713"/>
</g>
<!-- HOil -->
<g id="node15" class="node">
<title>HOil</title>
<polygon fill="#edf8b1" stroke="#000000" points="1390,-1188 1336,-1188 1336,-1152 1390,-1152 1390,-1188"/>
<text text-anchor="middle" x="1363" y="-1165.8" font-family="Arial" font-size="14.00" fill="#000000">HOil</text>
</g>
<!-- Oil&#45;&gt;HOil -->
<g id="edge28" class="edge">
<title>Oil-&gt;HOil</title>
<path fill="none" stroke="#000000" d="M1376.1252,-1597.7593C1403.6255,-1591.8583 1444.7823,-1578.2548 1464,-1548 1504.6949,-1483.9331 1666.2835,-1753.4991 1410,-1224 1405.0252,-1213.7218 1397.5676,-1203.8658 1390.0501,-1195.4529"/>
<polygon fill="#000000" stroke="#000000" points="1392.5973,-1193.0525 1383.1988,-1188.1616 1387.496,-1197.8459 1392.5973,-1193.0525"/>
</g>
<!-- Ethanol -->
<g id="node4" class="node">
<title>Ethanol</title>
<polygon fill="#edf8b1" stroke="#000000" points="618.9659,-1476 555.0341,-1476 555.0341,-1440 618.9659,-1440 618.9659,-1476"/>
<text text-anchor="middle" x="587" y="-1453.8" font-family="Arial" font-size="14.00" fill="#000000">Ethanol</text>
</g>
<!-- HardCider -->
<g id="node5" class="node">
<title>HardCider</title>
<polygon fill="#edf8b1" stroke="#000000" points="445.7717,-1404 366.2283,-1404 366.2283,-1368 445.7717,-1368 445.7717,-1404"/>
<text text-anchor="middle" x="406" y="-1381.8" font-family="Arial" font-size="14.00" fill="#000000">HardCider</text>
</g>
<!-- Ethanol&#45;&gt;HardCider -->
<g id="edge22" class="edge">
<title>Ethanol-&gt;HardCider</title>
<path fill="none" stroke="#000000" d="M555.0575,-1445.2936C527.4656,-1434.3178 487.1473,-1418.2796 455.3982,-1405.6501"/>
<polygon fill="#000000" stroke="#000000" points="456.4292,-1402.2935 445.8437,-1401.8494 453.8419,-1408.7978 456.4292,-1402.2935"/>
</g>
<!-- Tequila -->
<g id="node8" class="node">
<title>Tequila</title>
<polygon fill="#edf8b1" stroke="#000000" points="750.8963,-972 689.1037,-972 689.1037,-936 750.8963,-936 750.8963,-972"/>
<text text-anchor="middle" x="720" y="-949.8" font-family="Arial" font-size="14.00" fill="#000000">Tequila</text>
</g>
<!-- Ethanol&#45;&gt;Tequila -->
<g id="edge36" class="edge">
<title>Ethanol-&gt;Tequila</title>
<path fill="none" stroke="#000000" d="M599.3682,-1439.8166C616.1323,-1413.3548 644,-1362.1283 644,-1314 644,-1314 644,-1314 644,-1242 644,-1143.3439 686.209,-1031.7827 707.7154,-981.343"/>
<polygon fill="#000000" stroke="#000000" points="710.9594,-982.6593 711.722,-972.0919 704.536,-979.8773 710.9594,-982.6593"/>
</g>
<!-- Beer -->
<g id="node11" class="node">
<title>Beer</title>
<polygon fill="#edf8b1" stroke="#000000" points="960,-1260 906,-1260 906,-1224 960,-1224 960,-1260"/>
<text text-anchor="middle" x="933" y="-1237.8" font-family="Arial" font-size="14.00" fill="#000000">Beer</text>
</g>
<!-- Ethanol&#45;&gt;Beer -->
<g id="edge33" class="edge">
<title>Ethanol-&gt;Beer</title>
<path fill="none" stroke="#000000" d="M615.9046,-1439.9555C678.8571,-1400.6557 828.2202,-1307.4117 897.0862,-1264.4202"/>
<polygon fill="#000000" stroke="#000000" points="899.2308,-1267.2074 905.8601,-1258.9428 895.5239,-1261.2695 899.2308,-1267.2074"/>
</g>
<!-- Parfume -->
<g id="node36" class="node">
<title>Parfume</title>
<polygon fill="#edf8b1" stroke="#000000" points="645.3963,-36 576.6037,-36 576.6037,0 645.3963,0 645.3963,-36"/>
<text text-anchor="middle" x="611" y="-13.8" font-family="Arial" font-size="14.00" fill="#000000">Parfume</text>
</g>
<!-- Ethanol&#45;&gt;Parfume -->
<g id="edge105" class="edge">
<title>Ethanol-&gt;Parfume</title>
<path fill="none" stroke="#000000" d="M555.2047,-1440.0116C520.4445,-1418.6976 465.6246,-1379.9548 435,-1332 413.4601,-1298.2709 202,-514.6556 202,-378 202,-378 202,-378 202,-162 202,-85.4129 460.3823,-39.6012 566.4112,-24.0262"/>
<polygon fill="#000000" stroke="#000000" points="567.0849,-27.4653 576.4814,-22.5709 566.0836,-20.5373 567.0849,-27.4653"/>
</g>
<!-- RaveJuice -->
<g id="node22" class="node">
<title>RaveJuice</title>
<polygon fill="#edf8b1" stroke="#000000" points="456.8443,-252 375.1557,-252 375.1557,-216 456.8443,-216 456.8443,-252"/>
<text text-anchor="middle" x="416" y="-229.8" font-family="Arial" font-size="14.00" fill="#000000">RaveJuice</text>
</g>
<!-- HardCider&#45;&gt;RaveJuice -->
<g id="edge81" class="edge">
<title>HardCider-&gt;RaveJuice</title>
<path fill="none" stroke="#000000" d="M394.4996,-1367.9439C379.8071,-1344.1107 354.5432,-1300.4321 340,-1260 284.652,-1106.1249 280.9807,-1062.6425 264,-900 246.5428,-732.7937 278,-690.1152 278,-522 278,-522 278,-522 278,-378 278,-323.4347 330.2893,-281.4825 370.494,-257.2906"/>
<polygon fill="#000000" stroke="#000000" points="372.5052,-260.1695 379.3808,-252.1087 368.9791,-254.1224 372.5052,-260.1695"/>
</g>
<!-- Seaweed -->
<g id="node45" class="node">
<title>Seaweed</title>
<ellipse fill="#7fcdbb" stroke="#000000" cx="495" cy="-1314" rx="51.08" ry="18"/>
<text text-anchor="middle" x="495" y="-1309.8" font-family="Arial" font-size="14.00" fill="#000000">Seaweed</text>
</g>
<!-- HardCider&#45;&gt;Seaweed -->
<!-- HFCS -->
<g id="node6" class="node">
<title>HFCS</title>
<polygon fill="#edf8b1" stroke="#000000" points="1086.1025,-972 1031.8975,-972 1031.8975,-936 1086.1025,-936 1086.1025,-972"/>
<text text-anchor="middle" x="1059" y="-949.8" font-family="Arial" font-size="14.00" fill="#000000">HFCS</text>
</g>
<!-- IceCream -->
<g id="node14" class="node">
<title>IceCream</title>
<polygon fill="#edf8b1" stroke="#000000" points="884.1669,-612 807.8331,-612 807.8331,-576 884.1669,-576 884.1669,-612"/>
<text text-anchor="middle" x="846" y="-589.8" font-family="Arial" font-size="14.00" fill="#000000">IceCream</text>
</g>
<!-- HFCS&#45;&gt;IceCream -->
<g id="edge51" class="edge">
<title>HFCS-&gt;IceCream</title>
<path fill="none" stroke="#000000" d="M1033.9473,-935.9617C1021.7287,-926.2836 1007.4523,-913.5702 997,-900 926.3845,-808.3203 875.6159,-678.3848 855.5217,-621.9566"/>
<polygon fill="#000000" stroke="#000000" points="858.7462,-620.5755 852.1288,-612.3015 852.1421,-622.8963 858.7462,-620.5755"/>
</g>
<!-- Chocolate -->
<g id="node17" class="node">
<title>Chocolate</title>
<polygon fill="#edf8b1" stroke="#000000" points="1209.5168,-612 1130.4832,-612 1130.4832,-576 1209.5168,-576 1209.5168,-612"/>
<text text-anchor="middle" x="1170" y="-589.8" font-family="Arial" font-size="14.00" fill="#000000">Chocolate</text>
</g>
<!-- HFCS&#45;&gt;Chocolate -->
<g id="edge59" class="edge">
<title>HFCS-&gt;Chocolate</title>
<path fill="none" stroke="#000000" d="M1086.1886,-936.0731C1098.4755,-926.6824 1112.1836,-914.184 1121,-900 1176.4997,-810.7109 1175.8221,-679.4451 1172.392,-622.3077"/>
<polygon fill="#000000" stroke="#000000" points="1175.8762,-621.9559 1171.7088,-612.2151 1168.8922,-622.4287 1175.8762,-621.9559"/>
</g>
<!-- EnergyDrink -->
<g id="node21" class="node">
<title>EnergyDrink</title>
<polygon fill="#edf8b1" stroke="#000000" points="462.5014,-324 369.4986,-324 369.4986,-288 462.5014,-288 462.5014,-324"/>
<text text-anchor="middle" x="416" y="-301.8" font-family="Arial" font-size="14.00" fill="#000000">EnergyDrink</text>
</g>
<!-- HFCS&#45;&gt;EnergyDrink -->
<g id="edge78" class="edge">
<title>HFCS-&gt;EnergyDrink</title>
<path fill="none" stroke="#000000" d="M1056.4067,-935.7262C1047.4713,-873.5414 1017.6549,-672.6262 1002,-648 876.6088,-450.7511 593.5515,-353.8127 472.5672,-320.1851"/>
<polygon fill="#000000" stroke="#000000" points="473.3244,-316.7636 462.7551,-317.4983 471.4757,-323.5151 473.3244,-316.7636"/>
</g>
<!-- Cake -->
<g id="node24" class="node">
<title>Cake</title>
<polygon fill="#edf8b1" stroke="#000000" points="1265,-540 1211,-540 1211,-504 1265,-504 1265,-540"/>
<text text-anchor="middle" x="1238" y="-517.8" font-family="Arial" font-size="14.00" fill="#000000">Cake</text>
</g>
<!-- HFCS&#45;&gt;Cake -->
<g id="edge71" class="edge">
<title>HFCS-&gt;Cake</title>
<path fill="none" stroke="#000000" d="M1086.1152,-944.333C1132.2326,-925.9515 1221,-881.3088 1221,-810 1221,-810 1221,-810 1221,-738 1221,-670.4933 1229.3545,-591.4839 1234.35,-550.2745"/>
<polygon fill="#000000" stroke="#000000" points="1237.846,-550.5218 1235.6004,-540.1677 1230.899,-549.6623 1237.846,-550.5218"/>
</g>
<!-- Jelly -->
<g id="node30" class="node">
<title>Jelly</title>
<polygon fill="#edf8b1" stroke="#000000" points="594,-900 540,-900 540,-864 594,-864 594,-900"/>
<text text-anchor="middle" x="567" y="-877.8" font-family="Arial" font-size="14.00" fill="#000000">Jelly</text>
</g>
<!-- HFCS&#45;&gt;Jelly -->
<g id="edge44" class="edge">
<title>HFCS-&gt;Jelly</title>
<path fill="none" stroke="#000000" d="M1031.8471,-950.0264C948.9361,-937.8931 698.9485,-901.3095 604.0685,-887.4247"/>
<polygon fill="#000000" stroke="#000000" points="604.4704,-883.9463 594.069,-885.9613 603.4567,-890.8725 604.4704,-883.9463"/>
</g>
<!-- TurkishDelight -->
<g id="node35" class="node">
<title>TurkishDelight</title>
<polygon fill="#edf8b1" stroke="#000000" points="1040.9441,-36 935.0559,-36 935.0559,0 1040.9441,0 1040.9441,-36"/>
<text text-anchor="middle" x="988" y="-13.8" font-family="Arial" font-size="14.00" fill="#000000">TurkishDelight</text>
</g>
<!-- HFCS&#45;&gt;TurkishDelight -->
<g id="edge111" class="edge">
<title>HFCS-&gt;TurkishDelight</title>
<path fill="none" stroke="#000000" d="M1067.3468,-935.9533C1082.654,-901.7505 1114.6831,-824.751 1126,-756 1138.9988,-677.0318 1109.8204,-655.2462 1121,-576 1133.7921,-485.324 1178,-469.5739 1178,-378 1178,-378 1178,-378 1178,-162 1178,-96.6597 1105.7467,-57.1457 1050.3529,-36.453"/>
<polygon fill="#000000" stroke="#000000" points="1051.5199,-33.1533 1040.9256,-33.0494 1049.1428,-39.7373 1051.5199,-33.1533"/>
</g>
<!-- Eggs -->
<g id="node7" class="node">
<title>Eggs</title>
<polygon fill="#edf8b1" stroke="#000000" points="1341,-684 1287,-684 1287,-648 1341,-648 1341,-684"/>
<text text-anchor="middle" x="1314" y="-661.8" font-family="Arial" font-size="14.00" fill="#000000">Eggs</text>
</g>
<!-- Eggs&#45;&gt;ProteinPowder -->
<g id="edge54" class="edge">
<title>Eggs-&gt;ProteinPowder</title>
<path fill="none" stroke="#000000" d="M1286.8183,-664.3609C1136.5558,-655.2998 406.3193,-611.2655 184.2159,-597.8723"/>
<polygon fill="#000000" stroke="#000000" points="184.2205,-594.3663 174.0279,-597.258 183.7991,-601.3536 184.2205,-594.3663"/>
</g>
<!-- FooYoung -->
<g id="node19" class="node">
<title>FooYoung</title>
<polygon fill="#edf8b1" stroke="#000000" points="1036.0859,-396 955.9141,-396 955.9141,-360 1036.0859,-360 1036.0859,-396"/>
<text text-anchor="middle" x="996" y="-373.8" font-family="Arial" font-size="14.00" fill="#000000">FooYoung</text>
</g>
<!-- Eggs&#45;&gt;FooYoung -->
<g id="edge95" class="edge">
<title>Eggs-&gt;FooYoung</title>
<path fill="none" stroke="#000000" d="M1315.8848,-647.9507C1318.352,-613.4947 1318.0301,-538.6938 1274,-504 1220.8276,-462.1024 1187.7548,-495.732 1126,-468 1088.4283,-451.1278 1050.2422,-423.1177 1025.0678,-402.821"/>
<polygon fill="#000000" stroke="#000000" points="1027.005,-399.8838 1017.0489,-396.2607 1022.5726,-405.3017 1027.005,-399.8838"/>
</g>
<!-- Eggs&#45;&gt;Cake -->
<g id="edge72" class="edge">
<title>Eggs-&gt;Cake</title>
<path fill="none" stroke="#000000" d="M1311.8746,-647.7372C1309.0625,-628.7973 1302.8703,-598.8176 1290,-576 1284.0654,-565.4787 1275.5991,-555.4885 1267.2167,-547.0273"/>
<polygon fill="#000000" stroke="#000000" points="1269.5664,-544.4309 1259.9378,-540.0103 1264.7081,-549.4705 1269.5664,-544.4309"/>
</g>
<!-- JelloShots -->
<g id="node23" class="node">
<title>JelloShots</title>
<polygon fill="#edf8b1" stroke="#000000" points="727.0719,-828 646.9281,-828 646.9281,-792 727.0719,-792 727.0719,-828"/>
<text text-anchor="middle" x="687" y="-805.8" font-family="Arial" font-size="14.00" fill="#000000">JelloShots</text>
</g>
<!-- Tequila&#45;&gt;JelloShots -->
<g id="edge45" class="edge">
<title>Tequila-&gt;JelloShots</title>
<path fill="none" stroke="#000000" d="M715.8205,-935.7623C710.1671,-911.0928 700.0304,-866.8598 693.4105,-837.9731"/>
<polygon fill="#000000" stroke="#000000" points="696.7909,-837.0551 691.1455,-828.0896 689.9678,-838.6188 696.7909,-837.0551"/>
</g>
<!-- Meat -->
<g id="node9" class="node">
<title>Meat</title>
<polygon fill="#edf8b1" stroke="#000000" points="787,-1260 733,-1260 733,-1224 787,-1224 787,-1260"/>
<text text-anchor="middle" x="760" y="-1237.8" font-family="Arial" font-size="14.00" fill="#000000">Meat</text>
</g>
<!-- Meat&#45;&gt;FooYoung -->
<g id="edge97" class="edge">
<title>Meat-&gt;FooYoung</title>
<path fill="none" stroke="#000000" d="M769.6673,-1223.9258C787.6546,-1189.6771 826.5592,-1112.6041 850,-1044 935.0483,-795.0897 941.1716,-727.1909 986,-468 989.5668,-447.3774 992.1282,-423.8653 993.7653,-406.0456"/>
<polygon fill="#000000" stroke="#000000" points="997.2574,-406.2876 994.6444,-396.02 990.2842,-405.676 997.2574,-406.2876"/>
</g>
<!-- CornDog -->
<g id="node28" class="node">
<title>CornDog</title>
<polygon fill="#edf8b1" stroke="#000000" points="1019.0042,-1116 946.9958,-1116 946.9958,-1080 1019.0042,-1080 1019.0042,-1116"/>
<text text-anchor="middle" x="983" y="-1093.8" font-family="Arial" font-size="14.00" fill="#000000">CornDog</text>
</g>
<!-- Meat&#45;&gt;CornDog -->
<g id="edge31" class="edge">
<title>Meat-&gt;CornDog</title>
<path fill="none" stroke="#000000" d="M787.2335,-1227.8956C806.9408,-1217.4359 834.0343,-1202.5302 857,-1188 890.0642,-1167.0805 926.2599,-1140.8566 951.3387,-1122.1219"/>
<polygon fill="#000000" stroke="#000000" points="953.4998,-1124.876 959.3968,-1116.074 949.2979,-1119.2774 953.4998,-1124.876"/>
</g>
<!-- Gelatin -->
<g id="node31" class="node">
<title>Gelatin</title>
<polygon fill="#edf8b1" stroke="#000000" points="594.3432,-972 533.6568,-972 533.6568,-936 594.3432,-936 594.3432,-972"/>
<text text-anchor="middle" x="564" y="-949.8" font-family="Arial" font-size="14.00" fill="#000000">Gelatin</text>
</g>
<!-- Meat&#45;&gt;Gelatin -->
<g id="edge41" class="edge">
<title>Meat-&gt;Gelatin</title>
<path fill="none" stroke="#000000" d="M732.8454,-1226.757C698.5637,-1206.1051 640.1885,-1166.0058 608,-1116 581.2404,-1074.428 570.6246,-1016.8152 566.5076,-982.6757"/>
<polygon fill="#000000" stroke="#000000" points="569.9572,-982.0248 565.387,-972.4664 562.999,-982.7886 569.9572,-982.0248"/>
</g>
<!-- Pie -->
<g id="node32" class="node">
<title>Pie</title>
<polygon fill="#edf8b1" stroke="#000000" points="588,-612 534,-612 534,-576 588,-576 588,-612"/>
<text text-anchor="middle" x="561" y="-589.8" font-family="Arial" font-size="14.00" fill="#000000">Pie</text>
</g>
<!-- Meat&#45;&gt;Pie -->
<g id="edge61" class="edge">
<title>Meat-&gt;Pie</title>
<path fill="none" stroke="#000000" d="M737.8279,-1223.7343C698.8185,-1189.3992 622,-1110.995 622,-1026 622,-1026 622,-1026 622,-954 622,-831.6235 584.7748,-805.2213 568,-684 565.158,-663.4625 563.3839,-640.1168 562.3331,-622.3497"/>
<polygon fill="#000000" stroke="#000000" points="565.8265,-622.133 561.7822,-612.3405 558.8371,-622.5178 565.8265,-622.133"/>
</g>
<!-- MSG -->
<g id="node10" class="node">
<title>MSG</title>
<polygon fill="#edf8b1" stroke="#000000" points="1455,-684 1401,-684 1401,-648 1455,-648 1455,-684"/>
<text text-anchor="middle" x="1428" y="-661.8" font-family="Arial" font-size="14.00" fill="#000000">MSG</text>
</g>
<!-- TVDinner -->
<g id="node18" class="node">
<title>TVDinner</title>
<polygon fill="#edf8b1" stroke="#000000" points="606.6109,-540 531.3891,-540 531.3891,-504 606.6109,-504 606.6109,-540"/>
<text text-anchor="middle" x="569" y="-517.8" font-family="Arial" font-size="14.00" fill="#000000">TVDinner</text>
</g>
<!-- MSG&#45;&gt;TVDinner -->
<g id="edge69" class="edge">
<title>MSG-&gt;TVDinner</title>
<path fill="none" stroke="#000000" d="M1400.9488,-650.931C1362.0445,-630.0664 1287.4313,-593.0286 1219,-576 1104.6571,-547.5466 746.6511,-529.6678 616.7186,-523.9747"/>
<polygon fill="#000000" stroke="#000000" points="616.8159,-520.4758 606.6736,-523.539 616.5125,-527.4692 616.8159,-520.4758"/>
</g>
<!-- MSG&#45;&gt;FooYoung -->
<g id="edge94" class="edge">
<title>MSG-&gt;FooYoung</title>
<path fill="none" stroke="#000000" d="M1418.114,-647.9491C1399.3138,-615.1234 1355.3872,-545.2459 1301,-504 1221.8121,-443.9459 1109.8973,-407.4244 1045.9684,-390.1181"/>
<polygon fill="#000000" stroke="#000000" points="1046.696,-386.69 1036.1325,-387.5048 1044.8985,-393.4553 1046.696,-386.69"/>
</g>
<!-- Emulsifiers -->
<g id="node12" class="node">
<title>Emulsifiers</title>
<polygon fill="#edf8b1" stroke="#000000" points="732.4345,-684 647.5655,-684 647.5655,-648 732.4345,-648 732.4345,-684"/>
<text text-anchor="middle" x="690" y="-661.8" font-family="Arial" font-size="14.00" fill="#000000">Emulsifiers</text>
</g>
<!-- Emulsifiers&#45;&gt;IceCream -->
<g id="edge49" class="edge">
<title>Emulsifiers-&gt;IceCream</title>
<path fill="none" stroke="#000000" d="M729.3654,-647.8314C750.3737,-638.1352 776.3844,-626.1303 798.5081,-615.9193"/>
<polygon fill="#000000" stroke="#000000" points="800.1129,-619.0335 807.7258,-611.665 797.1794,-612.6778 800.1129,-619.0335"/>
</g>
<!-- Emulsifiers&#45;&gt;TVDinner -->
<g id="edge70" class="edge">
<title>Emulsifiers-&gt;TVDinner</title>
<path fill="none" stroke="#000000" d="M674.6753,-647.7623C653.4915,-622.5518 615.1399,-576.9103 590.9272,-548.0952"/>
<polygon fill="#000000" stroke="#000000" points="593.3131,-545.494 584.2003,-540.0896 587.9539,-549.9973 593.3131,-545.494"/>
</g>
<!-- Hydrogen -->
<g id="node13" class="node">
<title>Hydrogen</title>
<polygon fill="#edf8b1" stroke="#000000" points="1401.1809,-1260 1324.8191,-1260 1324.8191,-1224 1401.1809,-1224 1401.1809,-1260"/>
<text text-anchor="middle" x="1363" y="-1237.8" font-family="Arial" font-size="14.00" fill="#000000">Hydrogen</text>
</g>
<!-- Hydrogen&#45;&gt;HOil -->
<g id="edge29" class="edge">
<title>Hydrogen-&gt;HOil</title>
<path fill="none" stroke="#000000" d="M1363,-1223.8314C1363,-1216.131 1363,-1206.9743 1363,-1198.4166"/>
<polygon fill="#000000" stroke="#000000" points="1366.5001,-1198.4132 1363,-1188.4133 1359.5001,-1198.4133 1366.5001,-1198.4132"/>
</g>
<!-- Dessert -->
<g id="node29" class="node">
<title>Dessert</title>
<polygon fill="#edf8b1" stroke="#000000" points="532.2234,-396 467.7766,-396 467.7766,-360 532.2234,-360 532.2234,-396"/>
<text text-anchor="middle" x="500" y="-373.8" font-family="Arial" font-size="14.00" fill="#000000">Dessert</text>
</g>
<!-- IceCream&#45;&gt;Dessert -->
<g id="edge88" class="edge">
<title>IceCream-&gt;Dessert</title>
<path fill="none" stroke="#000000" d="M830.0671,-575.8089C800.2117,-542.7554 732.473,-472.5211 662,-432 624.1516,-410.2376 576.2393,-395.6435 542.3665,-387.172"/>
<polygon fill="#000000" stroke="#000000" points="542.8748,-383.6939 532.3316,-384.7383 541.225,-390.4967 542.8748,-383.6939"/>
</g>
<!-- HOil&#45;&gt;IceCream -->
<g id="edge50" class="edge">
<title>HOil-&gt;IceCream</title>
<path fill="none" stroke="#000000" d="M1346.6733,-1151.8101C1271.3802,-1067.9246 957.5808,-718.3144 869.2365,-619.8882"/>
<polygon fill="#000000" stroke="#000000" points="871.615,-617.2983 862.3306,-612.1943 866.4056,-621.9741 871.615,-617.2983"/>
</g>
<!-- HOil&#45;&gt;Chocolate -->
<g id="edge60" class="edge">
<title>HOil-&gt;Chocolate</title>
<path fill="none" stroke="#000000" d="M1373.4153,-1151.5566C1387.5325,-1124.7787 1411,-1073.1706 1411,-1026 1411,-1026 1411,-1026 1411,-882 1411,-774.5244 1425.7839,-724.209 1350,-648 1308.523,-606.2903 1277.3701,-628.8547 1219.5648,-613.1571"/>
<polygon fill="#000000" stroke="#000000" points="1220.2415,-609.7053 1209.6565,-610.162 1218.216,-616.4059 1220.2415,-609.7053"/>
</g>
<!-- HOil&#45;&gt;CornDog -->
<g id="edge30" class="edge">
<title>HOil-&gt;CornDog</title>
<path fill="none" stroke="#000000" d="M1335.976,-1164.8797C1271.7967,-1152.7194 1109.6009,-1121.9875 1029.3849,-1106.7887"/>
<polygon fill="#000000" stroke="#000000" points="1029.5692,-1103.2614 1019.0924,-1104.8386 1028.266,-1110.1391 1029.5692,-1103.2614"/>
</g>
<!-- MiraclePowder -->
<g id="node37" class="node">
<title>MiraclePowder</title>
<polygon fill="#edf8b1" stroke="#000000" points="388.0521,-36 279.9479,-36 279.9479,0 388.0521,0 388.0521,-36"/>
<text text-anchor="middle" x="334" y="-13.8" font-family="Arial" font-size="14.00" fill="#000000">MiraclePowder</text>
</g>
<!-- ProteinPowder&#45;&gt;MiraclePowder -->
<g id="edge106" class="edge">
<title>ProteinPowder-&gt;MiraclePowder</title>
<path fill="none" stroke="#000000" d="M90.0285,-575.9508C54.4853,-552.0025 0,-506.1362 0,-450 0,-450 0,-450 0,-162 0,-103.9094 172.5239,-54.9374 269.5837,-31.9828"/>
<polygon fill="#000000" stroke="#000000" points="270.6522,-35.3275 279.5938,-29.6443 269.0597,-28.5111 270.6522,-35.3275"/>
</g>
<!-- Chocolate&#45;&gt;Cake -->
<g id="edge74" class="edge">
<title>Chocolate-&gt;Cake</title>
<path fill="none" stroke="#000000" d="M1187.1593,-575.8314C1195.1511,-567.3694 1204.8038,-557.1489 1213.5416,-547.8971"/>
<polygon fill="#000000" stroke="#000000" points="1216.288,-550.0866 1220.6097,-540.4133 1211.1989,-545.2802 1216.288,-550.0866"/>
</g>
<!-- CateringKit -->
<g id="node25" class="node">
<title>CateringKit</title>
<polygon fill="#edf8b1" stroke="#000000" points="561.7289,-252 476.2711,-252 476.2711,-216 561.7289,-216 561.7289,-252"/>
<text text-anchor="middle" x="519" y="-229.8" font-family="Arial" font-size="14.00" fill="#000000">CateringKit</text>
</g>
<!-- TVDinner&#45;&gt;CateringKit -->
<g id="edge90" class="edge">
<title>TVDinner-&gt;CateringKit</title>
<path fill="none" stroke="#000000" d="M565.8189,-503.5339C560.6355,-473.4584 550.0376,-412.0235 541,-360 535.1802,-326.4989 528.4514,-287.9949 523.9833,-262.4589"/>
<polygon fill="#000000" stroke="#000000" points="527.3877,-261.608 522.2161,-252.3612 520.4925,-262.8149 527.3877,-261.608"/>
</g>
<!-- Coffee -->
<g id="node46" class="node">
<title>Coffee</title>
<ellipse fill="#7fcdbb" stroke="#000000" cx="614" cy="-450" rx="39.4602" ry="18"/>
<text text-anchor="middle" x="614" y="-445.8" font-family="Arial" font-size="14.00" fill="#000000">Coffee</text>
</g>
<!-- TVDinner&#45;&gt;Coffee -->
<!-- PartyPack -->
<g id="node27" class="node">
<title>PartyPack</title>
<polygon fill="#edf8b1" stroke="#000000" points="899.7899,-180 820.2101,-180 820.2101,-144 899.7899,-144 899.7899,-180"/>
<text text-anchor="middle" x="860" y="-157.8" font-family="Arial" font-size="14.00" fill="#000000">PartyPack</text>
</g>
<!-- FooYoung&#45;&gt;PartyPack -->
<g id="edge98" class="edge">
<title>FooYoung-&gt;PartyPack</title>
<path fill="none" stroke="#000000" d="M984.6386,-359.9555C960.6887,-321.9173 904.9197,-233.3431 876.8191,-188.7127"/>
<polygon fill="#000000" stroke="#000000" points="879.7147,-186.7425 871.4247,-180.1451 873.791,-190.4723 879.7147,-186.7425"/>
</g>
<!-- Caffeine -->
<g id="node20" class="node">
<title>Caffeine</title>
<polygon fill="#edf8b1" stroke="#000000" points="450.1249,-396 381.8751,-396 381.8751,-360 450.1249,-360 450.1249,-396"/>
<text text-anchor="middle" x="416" y="-373.8" font-family="Arial" font-size="14.00" fill="#000000">Caffeine</text>
</g>
<!-- Caffeine&#45;&gt;EnergyDrink -->
<g id="edge79" class="edge">
<title>Caffeine-&gt;EnergyDrink</title>
<path fill="none" stroke="#000000" d="M416,-359.8314C416,-352.131 416,-342.9743 416,-334.4166"/>
<polygon fill="#000000" stroke="#000000" points="419.5001,-334.4132 416,-324.4133 412.5001,-334.4133 419.5001,-334.4132"/>
</g>
<!-- PerkPills -->
<g id="node33" class="node">
<title>PerkPills</title>
<polygon fill="#edf8b1" stroke="#000000" points="174.4376,-324 103.5624,-324 103.5624,-288 174.4376,-288 174.4376,-324"/>
<text text-anchor="middle" x="139" y="-301.8" font-family="Arial" font-size="14.00" fill="#000000">PerkPills</text>
</g>
<!-- Caffeine&#45;&gt;PerkPills -->
<g id="edge83" class="edge">
<title>Caffeine-&gt;PerkPills</title>
<path fill="none" stroke="#000000" d="M381.7565,-369.0992C332.0188,-356.171 239.7031,-332.1755 184.3612,-317.7906"/>
<polygon fill="#000000" stroke="#000000" points="185.0354,-314.3496 174.4765,-315.2213 183.2744,-321.1245 185.0354,-314.3496"/>
</g>
<!-- EnergyDrink&#45;&gt;RaveJuice -->
<g id="edge82" class="edge">
<title>EnergyDrink-&gt;RaveJuice</title>
<path fill="none" stroke="#000000" d="M416,-287.8314C416,-280.131 416,-270.9743 416,-262.4166"/>
<polygon fill="#000000" stroke="#000000" points="419.5001,-262.4132 416,-252.4133 412.5001,-262.4133 419.5001,-262.4132"/>
</g>
<!-- EnergyDrink&#45;&gt;CateringKit -->
<g id="edge92" class="edge">
<title>EnergyDrink-&gt;CateringKit</title>
<path fill="none" stroke="#000000" d="M441.9912,-287.8314C454.9216,-278.7927 470.7222,-267.7476 484.6383,-258.0198"/>
<polygon fill="#000000" stroke="#000000" points="486.8263,-260.7608 493.0171,-252.1628 482.8157,-255.0235 486.8263,-260.7608"/>
</g>
<!-- RaveJuice&#45;&gt;PartyPack -->
<g id="edge101" class="edge">
<title>RaveJuice-&gt;PartyPack</title>
<path fill="none" stroke="#000000" d="M456.6994,-218.817C460.1581,-217.7769 463.6238,-216.8188 467,-216 499.7253,-208.0637 711.8276,-180.7359 810.1258,-168.2781"/>
<polygon fill="#000000" stroke="#000000" points="810.6401,-171.741 820.1214,-167.0129 809.761,-164.7964 810.6401,-171.741"/>
</g>
<!-- JelloShots&#45;&gt;PartyPack -->
<g id="edge99" class="edge">
<title>JelloShots-&gt;PartyPack</title>
<path fill="none" stroke="#000000" d="M675.3196,-791.7676C657.6924,-762.0202 627.5075,-701.0363 639,-648 679.3895,-461.6074 797.6238,-260.8753 842.4738,-189.2689"/>
<polygon fill="#000000" stroke="#000000" points="845.6821,-190.743 848.0573,-180.4179 839.7616,-187.0082 845.6821,-190.743"/>
</g>
<!-- Strawberry -->
<g id="node49" class="node">
<title>Strawberry</title>
<ellipse fill="#7fcdbb" stroke="#000000" cx="773" cy="-738" rx="57.9197" ry="18"/>
<text text-anchor="middle" x="773" y="-733.8" font-family="Arial" font-size="14.00" fill="#000000">Strawberry</text>
</g>
<!-- JelloShots&#45;&gt;Strawberry -->
<!-- Cake&#45;&gt;PartyPack -->
<g id="edge100" class="edge">
<title>Cake-&gt;PartyPack</title>
<path fill="none" stroke="#000000" d="M1219.4488,-503.9112C1170.6222,-456.3659 1034.3606,-324.094 919,-216 908.8461,-206.4857 897.6009,-196.1455 887.6748,-187.084"/>
<polygon fill="#000000" stroke="#000000" points="889.7924,-184.2786 880.043,-180.1312 885.0782,-189.4531 889.7924,-184.2786"/>
</g>
<!-- Packaging -->
<g id="node26" class="node">
<title>Packaging</title>
<polygon fill="#edf8b1" stroke="#000000" points="904.857,-396 823.143,-396 823.143,-360 904.857,-360 904.857,-396"/>
<text text-anchor="middle" x="864" y="-373.8" font-family="Arial" font-size="14.00" fill="#000000">Packaging</text>
</g>
<!-- Packaging&#45;&gt;CateringKit -->
<g id="edge93" class="edge">
<title>Packaging-&gt;CateringKit</title>
<path fill="none" stroke="#000000" d="M823.0692,-360.9158C760.2503,-334.6958 640.1178,-284.5535 571.1486,-255.7664"/>
<polygon fill="#000000" stroke="#000000" points="572.3442,-252.4728 561.7676,-251.8508 569.6479,-258.9327 572.3442,-252.4728"/>
</g>
<!-- Packaging&#45;&gt;PartyPack -->
<g id="edge102" class="edge">
<title>Packaging-&gt;PartyPack</title>
<path fill="none" stroke="#000000" d="M863.6658,-359.9555C862.9703,-322.3938 861.3621,-235.5541 860.5261,-190.4103"/>
<polygon fill="#000000" stroke="#000000" points="864.0207,-190.0785 860.336,-180.1451 857.0219,-190.2082 864.0207,-190.0785"/>
</g>
<!-- SeaCucumber -->
<g id="node51" class="node">
<title>SeaCucumber</title>
<ellipse fill="#7fcdbb" stroke="#000000" cx="611" cy="-90" rx="72.9896" ry="18"/>
<text text-anchor="middle" x="611" y="-85.8" font-family="Arial" font-size="14.00" fill="#000000">SeaCucumber</text>
</g>
<!-- PartyPack&#45;&gt;SeaCucumber -->
<!-- Cactus -->
<g id="node43" class="node">
<title>Cactus</title>
<ellipse fill="#7fcdbb" stroke="#000000" cx="800" cy="-1026" rx="41.1703" ry="18"/>
<text text-anchor="middle" x="800" y="-1021.8" font-family="Arial" font-size="14.00" fill="#000000">Cactus</text>
</g>
<!-- CornDog&#45;&gt;Cactus -->
<!-- Dessert&#45;&gt;CateringKit -->
<g id="edge91" class="edge">
<title>Dessert-&gt;CateringKit</title>
<path fill="none" stroke="#000000" d="M502.4064,-359.7623C505.6471,-335.201 511.4465,-291.2474 515.2588,-262.3541"/>
<polygon fill="#000000" stroke="#000000" points="518.7749,-262.4616 516.6132,-252.0896 511.8351,-261.5458 518.7749,-262.4616"/>
</g>
<!-- Jelly&#45;&gt;JelloShots -->
<g id="edge46" class="edge">
<title>Jelly-&gt;JelloShots</title>
<path fill="none" stroke="#000000" d="M594.2299,-865.6621C610.1291,-856.1226 630.4567,-843.926 648.0293,-833.3824"/>
<polygon fill="#000000" stroke="#000000" points="650.1552,-836.1886 656.9294,-828.0423 646.5537,-830.1861 650.1552,-836.1886"/>
</g>
<!-- Jelly&#45;&gt;Dessert -->
<g id="edge87" class="edge">
<title>Jelly-&gt;Dessert</title>
<path fill="none" stroke="#000000" d="M563.0489,-863.7983C555.6219,-829.019 539.4758,-750.6471 530,-684 515.519,-582.1495 505.839,-460.2266 501.9384,-406.1763"/>
<polygon fill="#000000" stroke="#000000" points="505.4153,-405.7268 501.2148,-396.0003 498.433,-406.2234 505.4153,-405.7268"/>
</g>
<!-- Gelatin&#45;&gt;Jelly -->
<g id="edge42" class="edge">
<title>Gelatin-&gt;Jelly</title>
<path fill="none" stroke="#000000" d="M564.757,-935.8314C565.0779,-928.131 565.4594,-918.9743 565.816,-910.4166"/>
<polygon fill="#000000" stroke="#000000" points="569.3133,-910.5503 566.2328,-900.4133 562.3194,-910.2589 569.3133,-910.5503"/>
</g>
<!-- Gelatin&#45;&gt;Pie -->
<g id="edge62" class="edge">
<title>Gelatin-&gt;Pie</title>
<path fill="none" stroke="#000000" d="M549.3494,-935.7019C542.3266,-925.7631 534.6604,-912.8947 531,-900 504.7844,-807.6477 530.2222,-780.0008 530,-684 529.963,-668 525.8779,-663.4599 530,-648 532.4952,-638.6419 537.0408,-629.2199 541.8961,-620.925"/>
<polygon fill="#000000" stroke="#000000" points="544.8771,-622.759 547.2037,-612.4228 538.9392,-619.0521 544.8771,-622.759"/>
</g>
<!-- Pie&#45;&gt;TVDinner -->
<g id="edge68" class="edge">
<title>Pie-&gt;TVDinner</title>
<path fill="none" stroke="#000000" d="M563.0187,-575.8314C563.8743,-568.131 564.8917,-558.9743 565.8426,-550.4166"/>
<polygon fill="#000000" stroke="#000000" points="569.3283,-550.7386 566.9541,-540.4133 562.3711,-549.9656 569.3283,-550.7386"/>
</g>
<!-- PerkPills&#45;&gt;MiraclePowder -->
<g id="edge108" class="edge">
<title>PerkPills-&gt;MiraclePowder</title>
<path fill="none" stroke="#000000" d="M137.335,-287.9529C134.402,-245.0227 133.1193,-135.6592 188,-72 208.5997,-48.1053 240.7712,-34.774 269.6776,-27.3409"/>
<polygon fill="#000000" stroke="#000000" points="270.8214,-30.6666 279.7417,-24.95 269.2035,-23.8562 270.8214,-30.6666"/>
</g>
<!-- Rose -->
<g id="node34" class="node">
<title>Rose</title>
<ellipse fill="#7fcdbb" stroke="#000000" cx="988" cy="-90" rx="33.646" ry="18"/>
<text text-anchor="middle" x="988" y="-85.8" font-family="Arial" font-size="14.00" fill="#000000">Rose</text>
</g>
<!-- Rose&#45;&gt;TurkishDelight -->
<g id="edge110" class="edge">
<title>Rose-&gt;TurkishDelight</title>
<path fill="none" stroke="#000000" d="M988,-71.8314C988,-64.131 988,-54.9743 988,-46.4166"/>
<polygon fill="#000000" stroke="#000000" points="991.5001,-46.4132 988,-36.4133 984.5001,-46.4133 991.5001,-46.4132"/>
</g>
<!-- Carrots -->
<g id="node38" class="node">
<title>Carrots</title>
<ellipse fill="#7fcdbb" stroke="#000000" cx="300" cy="-1674" rx="42.8732" ry="18"/>
<text text-anchor="middle" x="300" y="-1669.8" font-family="Arial" font-size="14.00" fill="#000000">Carrots</text>
</g>
<!-- Carrots&#45;&gt;Vitamins -->
<g id="edge14" class="edge">
<title>Carrots-&gt;Vitamins</title>
<path fill="none" stroke="#000000" d="M277.3081,-1658.7307C263.1257,-1649.1874 244.5619,-1636.6958 228.4649,-1625.8642"/>
<polygon fill="#000000" stroke="#000000" points="230.0699,-1622.7257 219.8194,-1620.0467 226.162,-1628.5333 230.0699,-1622.7257"/>
</g>
<!-- Carrots&#45;&gt;TVDinner -->
<g id="edge67" class="edge">
<title>Carrots-&gt;TVDinner</title>
<path fill="none" stroke="#000000" d="M311.0362,-1656.5034C325.1887,-1632.93 348.9802,-1589.1657 358,-1548 361.4245,-1532.3708 360.2965,-1527.8343 358,-1512 340.0362,-1388.1392 278,-1367.1567 278,-1242 278,-1242 278,-1242 278,-954 278,-770.7114 460.4195,-606.8527 536.3965,-546.5549"/>
<polygon fill="#000000" stroke="#000000" points="538.9818,-548.9753 544.69,-540.0496 534.6616,-543.4675 538.9818,-548.9753"/>
</g>
<!-- Carrots&#45;&gt;Potatoes -->
<!-- Sunflower -->
<g id="node39" class="node">
<title>Sunflower</title>
<ellipse fill="#7fcdbb" stroke="#000000" cx="1054" cy="-1674" rx="53.9252" ry="18"/>
<text text-anchor="middle" x="1054" y="-1669.8" font-family="Arial" font-size="14.00" fill="#000000">Sunflower</text>
</g>
<!-- Sunflower&#45;&gt;Oil -->
<g id="edge16" class="edge">
<title>Sunflower-&gt;Oil</title>
<path fill="none" stroke="#000000" d="M1097.8459,-1663.2986C1155.8984,-1649.1299 1257.2664,-1624.3892 1311.7813,-1611.0839"/>
<polygon fill="#000000" stroke="#000000" points="1312.8287,-1614.4311 1321.7136,-1608.6597 1311.1689,-1607.6307 1312.8287,-1614.4311"/>
</g>
<!-- Sunflower&#45;&gt;Meat -->
<g id="edge24" class="edge">
<title>Sunflower-&gt;Meat</title>
<path fill="none" stroke="#000000" d="M1011.5639,-1662.7192C930.1462,-1639.8196 760,-1585.3434 760,-1530 760,-1530 760,-1530 760,-1386 760,-1345.876 760,-1299.4631 760,-1270.4177"/>
<polygon fill="#000000" stroke="#000000" points="763.5001,-1270.1853 760,-1260.1854 756.5001,-1270.1854 763.5001,-1270.1853"/>
</g>
<!-- Potatoes&#45;&gt;Chips -->
<g id="edge17" class="edge">
<title>Potatoes-&gt;Chips</title>
<path fill="none" stroke="#000000" d="M348.5969,-1526.7899C533.1387,-1514.6 1188.3516,-1471.3199 1352.499,-1460.4771"/>
<polygon fill="#000000" stroke="#000000" points="1352.8432,-1463.9621 1362.5908,-1459.8105 1352.3818,-1456.9773 1352.8432,-1463.9621"/>
</g>
<!-- Potatoes&#45;&gt;Ethanol -->
<g id="edge20" class="edge">
<title>Potatoes-&gt;Ethanol</title>
<path fill="none" stroke="#000000" d="M340.8153,-1519.7606C395.1574,-1506.1278 490.7565,-1482.1447 545.4617,-1468.4208"/>
<polygon fill="#000000" stroke="#000000" points="546.3336,-1471.8106 555.1813,-1465.9824 544.6302,-1465.021 546.3336,-1471.8106"/>
</g>
<!-- Potatoes&#45;&gt;Pie -->
<g id="edge64" class="edge">
<title>Potatoes-&gt;Pie</title>
<path fill="none" stroke="#000000" d="M305.895,-1511.9202C326.2003,-1449.0262 392,-1239.8306 392,-1170 392,-1170 392,-1170 392,-1026 392,-928.5257 430,-907.4743 430,-810 430,-810 430,-810 430,-738 430,-681.3673 486.1262,-637.1773 524.903,-613.405"/>
<polygon fill="#000000" stroke="#000000" points="527.0473,-616.2022 533.8567,-608.0854 523.4718,-610.1842 527.0473,-616.2022"/>
</g>
<!-- Potatoes&#45;&gt;TurkishDelight -->
<g id="edge112" class="edge">
<title>Potatoes-&gt;TurkishDelight</title>
<path fill="none" stroke="#000000" d="M286.2152,-1512.5155C267.135,-1486.5061 235,-1435.372 235,-1386 235,-1386 235,-1386 235,-1314 235,-1212.9468 164,-1199.0532 164,-1098 164,-1098 164,-1098 164,-810 164,-605.1212 202.1383,-555.3163 264,-360 287.6811,-285.2316 299.0062,-256.7791 366,-216 390.7314,-200.946 772.4501,-83.7199 925.3626,-37.0635"/>
<polygon fill="#000000" stroke="#000000" points="926.5538,-40.3595 935.0976,-34.0942 924.5115,-33.664 926.5538,-40.3595"/>
</g>
<!-- Potatoes&#45;&gt;Seaweed -->
<!-- Apples -->
<g id="node41" class="node">
<title>Apples</title>
<ellipse fill="#7fcdbb" stroke="#000000" cx="192" cy="-1530" rx="40.606" ry="18"/>
<text text-anchor="middle" x="192" y="-1525.8" font-family="Arial" font-size="14.00" fill="#000000">Apples</text>
</g>
<!-- Apples&#45;&gt;HardCider -->
<g id="edge23" class="edge">
<title>Apples-&gt;HardCider</title>
<path fill="none" stroke="#000000" d="M214.4973,-1514.8616C251.7211,-1489.8139 326.4058,-1439.5587 370.7071,-1409.7485"/>
<polygon fill="#000000" stroke="#000000" points="372.7996,-1412.5591 379.1422,-1404.0726 368.8916,-1406.7515 372.7996,-1412.5591"/>
</g>
<!-- Apples&#45;&gt;Dessert -->
<g id="edge89" class="edge">
<title>Apples-&gt;Dessert</title>
<path fill="none" stroke="#000000" d="M193.036,-1511.8216C194.5005,-1484.5143 197,-1431.2773 197,-1386 197,-1386 197,-1386 197,-1314 197,-1217.9743 202,-1194.0257 202,-1098 202,-1098 202,-1098 202,-882 202,-854.1838 419.9167,-505.384 483.0516,-404.9133"/>
<polygon fill="#000000" stroke="#000000" points="486.1407,-406.5757 488.5006,-396.247 480.2147,-402.8496 486.1407,-406.5757"/>
</g>
<!-- Corn -->
<g id="node42" class="node">
<title>Corn</title>
<ellipse fill="#7fcdbb" stroke="#000000" cx="1144" cy="-1314" rx="31.9185" ry="18"/>
<text text-anchor="middle" x="1144" y="-1309.8" font-family="Arial" font-size="14.00" fill="#000000">Corn</text>
</g>
<!-- Corn&#45;&gt;HFCS -->
<g id="edge39" class="edge">
<title>Corn-&gt;HFCS</title>
<path fill="none" stroke="#000000" d="M1142.7568,-1295.8247C1140.9994,-1268.5213 1138,-1215.2893 1138,-1170 1138,-1170 1138,-1170 1138,-1098 1138,-1052.2601 1106.9837,-1007.3042 1083.8199,-980.1079"/>
<polygon fill="#000000" stroke="#000000" points="1086.1543,-977.4618 1076.9263,-972.2566 1080.8942,-982.0804 1086.1543,-977.4618"/>
</g>
<!-- Corn&#45;&gt;Eggs -->
<g id="edge52" class="edge">
<title>Corn-&gt;Eggs</title>
<path fill="none" stroke="#000000" d="M1165.6306,-1300.573C1198.9433,-1278.0327 1259,-1229.1888 1259,-1170 1259,-1170 1259,-1170 1259,-1026 1259,-992.9392 1295.7154,-773.5831 1309.1504,-694.4228"/>
<polygon fill="#000000" stroke="#000000" points="1312.6598,-694.6625 1310.8854,-684.2173 1305.7588,-693.4893 1312.6598,-694.6625"/>
</g>
<!-- Corn&#45;&gt;CornDog -->
<g id="edge32" class="edge">
<title>Corn-&gt;CornDog</title>
<path fill="none" stroke="#000000" d="M1131.3666,-1297.0508C1103.3709,-1259.4914 1035.9522,-1169.0415 1002.5006,-1124.1623"/>
<polygon fill="#000000" stroke="#000000" points="1005.2582,-1122.0053 996.4757,-1116.0792 999.6457,-1126.1887 1005.2582,-1122.0053"/>
</g>
<!-- Cactus&#45;&gt;Tequila -->
<g id="edge37" class="edge">
<title>Cactus-&gt;Tequila</title>
<path fill="none" stroke="#000000" d="M781.8468,-1009.6621C771.7335,-1000.5602 758.9326,-989.0393 747.6038,-978.8434"/>
<polygon fill="#000000" stroke="#000000" points="749.8214,-976.1305 740.047,-972.0423 745.1386,-981.3336 749.8214,-976.1305"/>
</g>
<!-- Cactus&#45;&gt;Packaging -->
<g id="edge86" class="edge">
<title>Cactus-&gt;Packaging</title>
<path fill="none" stroke="#000000" d="M805.5258,-1008.0826C822.8063,-950.9925 875.6992,-767.9522 893,-612 894.7642,-596.0976 894.3914,-591.9394 893,-576 888.7617,-527.4475 880.9168,-516.2438 874,-468 871.0484,-447.4125 868.4768,-424.0685 866.6808,-406.3147"/>
<polygon fill="#000000" stroke="#000000" points="870.1591,-405.9213 865.6912,-396.3146 863.1931,-406.6108 870.1591,-405.9213"/>
</g>
<!-- Cactus&#45;&gt;Strawberry -->
<!-- Wheat -->
<g id="node44" class="node">
<title>Wheat</title>
<ellipse fill="#7fcdbb" stroke="#000000" cx="1055" cy="-1314" rx="38.8806" ry="18"/>
<text text-anchor="middle" x="1055" y="-1309.8" font-family="Arial" font-size="14.00" fill="#000000">Wheat</text>
</g>
<!-- Wheat&#45;&gt;MSG -->
<g id="edge65" class="edge">
<title>Wheat-&gt;MSG</title>
<path fill="none" stroke="#000000" d="M1085.3995,-1302.4496C1125.4169,-1287.1957 1190.9781,-1262.0144 1193,-1260 1361.7187,-1091.911 1412.7407,-787.8409 1424.8033,-694.208"/>
<polygon fill="#000000" stroke="#000000" points="1428.2997,-694.4522 1426.0577,-684.0973 1421.353,-693.5902 1428.2997,-694.4522"/>
</g>
<!-- Wheat&#45;&gt;Beer -->
<g id="edge35" class="edge">
<title>Wheat-&gt;Beer</title>
<path fill="none" stroke="#000000" d="M1030.8967,-1299.7751C1013.1922,-1289.3265 988.8453,-1274.9579 968.8614,-1263.1641"/>
<polygon fill="#000000" stroke="#000000" points="970.4171,-1260.0182 960.0261,-1257.9498 966.8593,-1266.0466 970.4171,-1260.0182"/>
</g>
<!-- Wheat&#45;&gt;Cake -->
<g id="edge73" class="edge">
<title>Wheat-&gt;Cake</title>
<path fill="none" stroke="#000000" d="M1067.7611,-1296.7346C1112.4217,-1234.5466 1259,-1014.8392 1259,-810 1259,-810 1259,-810 1259,-738 1259,-670.3841 1248.6798,-591.4186 1242.5089,-550.2453"/>
<polygon fill="#000000" stroke="#000000" points="1245.9362,-549.5035 1240.9642,-540.1478 1239.0167,-550.562 1245.9362,-549.5035"/>
</g>
<!-- Wheat&#45;&gt;Pie -->
<g id="edge63" class="edge">
<title>Wheat-&gt;Pie</title>
<path fill="none" stroke="#000000" d="M1056.7814,-1295.8865C1059.9983,-1255.0646 1063.4715,-1153.6968 1028,-1080 939.9516,-897.0676 846.726,-902.3318 706,-756 675.7005,-724.4935 668.2075,-716.5213 639,-684 619.8307,-662.6558 598.5277,-638.0104 583.035,-619.9122"/>
<polygon fill="#000000" stroke="#000000" points="585.511,-617.4222 576.3541,-612.0929 580.189,-621.9693 585.511,-617.4222"/>
</g>
<!-- Seaweed&#45;&gt;Meat -->
<g id="edge25" class="edge">
<title>Seaweed-&gt;Meat</title>
<path fill="none" stroke="#000000" d="M535.8255,-1302.9078C586.9254,-1289.024 673.7063,-1265.4458 722.9638,-1252.0627"/>
<polygon fill="#000000" stroke="#000000" points="724.1465,-1255.3683 732.879,-1249.3687 722.3111,-1248.6132 724.1465,-1255.3683"/>
</g>
<!-- Seaweed&#45;&gt;Emulsifiers -->
<g id="edge47" class="edge">
<title>Seaweed-&gt;Emulsifiers</title>
<path fill="none" stroke="#000000" d="M498.5224,-1295.8955C503.5018,-1268.6824 512,-1215.5642 512,-1170 512,-1170 512,-1170 512,-1098 512,-993.6577 492.3105,-960.9043 531,-864 559.6916,-792.137 623.7801,-725.7422 661.242,-691.0972"/>
<polygon fill="#000000" stroke="#000000" points="663.7792,-693.5203 668.8094,-684.1958 659.0622,-688.3482 663.7792,-693.5203"/>
</g>
<!-- Seaweed&#45;&gt;ProteinPowder -->
<g id="edge55" class="edge">
<title>Seaweed-&gt;ProteinPowder</title>
<path fill="none" stroke="#000000" d="M485.7303,-1296.2021C435.4315,-1199.6285 195.2838,-738.5449 134.1727,-621.2115"/>
<polygon fill="#000000" stroke="#000000" points="137.175,-619.399 129.4514,-612.1466 130.9666,-622.6326 137.175,-619.399"/>
</g>
<!-- Seaweed&#45;&gt;Cactus -->
<!-- Coffee&#45;&gt;Caffeine -->
<g id="edge76" class="edge">
<title>Coffee-&gt;Caffeine</title>
<path fill="none" stroke="#000000" d="M581.7314,-439.3994C552.2014,-429.5574 507.1237,-414.1812 459.7029,-396.1709"/>
<polygon fill="#000000" stroke="#000000" points="460.7819,-392.8364 450.1914,-392.5346 458.2822,-399.3749 460.7819,-392.8364"/>
</g>
<!-- Coffee&#45;&gt;SeaCucumber -->
<!-- Bamboo -->
<g id="node47" class="node">
<title>Bamboo</title>
<ellipse fill="#7fcdbb" stroke="#000000" cx="930" cy="-450" rx="46.9864" ry="18"/>
<text text-anchor="middle" x="930" y="-445.8" font-family="Arial" font-size="14.00" fill="#000000">Bamboo</text>
</g>
<!-- Bamboo&#45;&gt;FooYoung -->
<g id="edge96" class="edge">
<title>Bamboo-&gt;FooYoung</title>
<path fill="none" stroke="#000000" d="M945.6411,-432.937C953.642,-424.2088 963.546,-413.4044 972.4483,-403.6928"/>
<polygon fill="#000000" stroke="#000000" points="975.1402,-405.9358 979.3174,-396.1992 969.9801,-401.2057 975.1402,-405.9358"/>
</g>
<!-- Bamboo&#45;&gt;Packaging -->
<g id="edge85" class="edge">
<title>Bamboo-&gt;Packaging</title>
<path fill="none" stroke="#000000" d="M914.3589,-432.937C906.358,-424.2088 896.454,-413.4044 887.5517,-403.6928"/>
<polygon fill="#000000" stroke="#000000" points="890.0199,-401.2057 880.6826,-396.1992 884.8598,-405.9358 890.0199,-401.2057"/>
</g>
<!-- Lime -->
<g id="node48" class="node">
<title>Lime</title>
<ellipse fill="#7fcdbb" stroke="#000000" cx="452" cy="-1026" rx="31.9185" ry="18"/>
<text text-anchor="middle" x="452" y="-1021.8" font-family="Arial" font-size="14.00" fill="#000000">Lime</text>
</g>
<!-- Lime&#45;&gt;EnergyDrink -->
<g id="edge77" class="edge">
<title>Lime-&gt;EnergyDrink</title>
<path fill="none" stroke="#000000" d="M443.6446,-1008.4825C419.9454,-957.133 354,-802.0262 354,-666 354,-666 354,-666 354,-594 354,-521.5065 320.7829,-503.0857 335,-432 341.7987,-398.0065 346.1234,-389.0767 365,-360 371.6256,-349.7942 380.2958,-339.7755 388.6031,-331.1926"/>
<polygon fill="#000000" stroke="#000000" points="391.1501,-333.5954 395.7496,-324.051 386.2021,-328.6439 391.1501,-333.5954"/>
</g>
<!-- Lime&#45;&gt;Jelly -->
<g id="edge43" class="edge">
<title>Lime-&gt;Jelly</title>
<path fill="none" stroke="#000000" d="M465.192,-1009.4814C484.9525,-984.7378 522.4275,-937.8125 545.9839,-908.3158"/>
<polygon fill="#000000" stroke="#000000" points="549.0171,-910.1264 552.5225,-900.1283 543.5473,-905.7582 549.0171,-910.1264"/>
</g>
<!-- Strawberry&#45;&gt;Emulsifiers -->
<!-- Strawberry&#45;&gt;IceCream -->
<g id="edge48" class="edge">
<title>Strawberry-&gt;IceCream</title>
<path fill="none" stroke="#000000" d="M787.6186,-720.2956C795.544,-710.1155 805.0995,-696.8336 812,-684 822.6955,-664.1085 831.5779,-640.1217 837.5786,-621.9151"/>
<polygon fill="#000000" stroke="#000000" points="840.9737,-622.7893 840.6898,-612.1983 834.3071,-620.6547 840.9737,-622.7893"/>
</g>
<!-- Strawberry&#45;&gt;Parfume -->
<g id="edge104" class="edge">
<title>Strawberry-&gt;Parfume</title>
<path fill="none" stroke="#000000" d="M775.9955,-719.7818C788.5591,-637.3674 830.2366,-293.8446 693,-72 683.8657,-57.2343 669.0184,-45.6697 654.4505,-37.0966"/>
<polygon fill="#000000" stroke="#000000" points="655.9164,-33.9081 645.4696,-32.1433 652.5357,-40.0377 655.9164,-33.9081"/>
</g>
<!-- Strawberry&#45;&gt;Coffee -->
<!-- Cocoa -->
<g id="node50" class="node">
<title>Cocoa</title>
<ellipse fill="#7fcdbb" stroke="#000000" cx="1078" cy="-738" rx="38.8825" ry="18"/>
<text text-anchor="middle" x="1078" y="-733.8" font-family="Arial" font-size="14.00" fill="#000000">Cocoa</text>
</g>
<!-- Cocoa&#45;&gt;Chocolate -->
<g id="edge58" class="edge">
<title>Cocoa-&gt;Chocolate</title>
<path fill="none" stroke="#000000" d="M1089.0973,-720.6302C1104.9492,-695.8187 1134.2157,-650.0102 1152.8635,-620.8224"/>
<polygon fill="#000000" stroke="#000000" points="1155.8487,-622.6507 1158.2832,-612.3394 1149.9498,-618.882 1155.8487,-622.6507"/>
</g>
<!-- Cocoa&#45;&gt;MiraclePowder -->
<g id="edge109" class="edge">
<title>Cocoa-&gt;MiraclePowder</title>
<path fill="none" stroke="#000000" d="M1075.0992,-719.8696C1070.9985,-692.6233 1064,-639.4634 1064,-594 1064,-594 1064,-594 1064,-306 1064,-206.3522 993.182,-197.3205 909,-144 823.5127,-89.8528 791.3992,-95.6137 693,-72 591.3586,-47.6083 470.7442,-32.1571 398.3961,-24.2993"/>
<polygon fill="#000000" stroke="#000000" points="398.3958,-20.7793 388.08,-23.1949 397.6506,-27.7396 398.3958,-20.7793"/>
</g>
<!-- SeaCucumber&#45;&gt;Parfume -->
<g id="edge103" class="edge">
<title>SeaCucumber-&gt;Parfume</title>
<path fill="none" stroke="#000000" d="M611,-71.8314C611,-64.131 611,-54.9743 611,-46.4166"/>
<polygon fill="#000000" stroke="#000000" points="614.5001,-46.4132 611,-36.4133 607.5001,-46.4133 614.5001,-46.4132"/>
</g>
<!-- SeaCucumber&#45;&gt;MiraclePowder -->
<g id="edge107" class="edge">
<title>SeaCucumber-&gt;MiraclePowder</title>
<path fill="none" stroke="#000000" d="M560.8374,-76.9613C515.3299,-65.1327 447.9849,-47.6279 398.492,-34.7633"/>
<polygon fill="#000000" stroke="#000000" points="399.0889,-31.3022 388.53,-32.1739 397.3279,-38.0771 399.0889,-31.3022"/>
</g>
<!-- Chalk -->
<g id="node52" class="node">
<title>Chalk</title>
<polygon fill="#2c7fb8" stroke="#000000" points="85,-1692 34.4805,-1674 85,-1656 135.5195,-1674 85,-1692"/>
<text text-anchor="middle" x="85" y="-1669.8" font-family="Arial" font-size="14.00" fill="#000000">Chalk</text>
</g>
<!-- Chalk&#45;&gt;Vitamins -->
<g id="edge15" class="edge">
<title>Chalk-&gt;Vitamins</title>
<path fill="none" stroke="#000000" d="M102.834,-1662.1107C117.5593,-1652.2938 138.9249,-1638.0501 157.1623,-1625.8918"/>
<polygon fill="#000000" stroke="#000000" points="159.4421,-1628.5785 165.8211,-1620.1193 155.5591,-1622.7541 159.4421,-1628.5785"/>
</g>
<!-- Chalk&#45;&gt;ProteinPowder -->
<g id="edge56" class="edge">
<title>Chalk-&gt;ProteinPowder</title>
<path fill="none" stroke="#000000" d="M85,-1655.8146C85,-1628.4983 85,-1575.25 85,-1530 85,-1530 85,-1530 85,-738 85,-696.755 98.7253,-650.697 108.9858,-622.0283"/>
<polygon fill="#000000" stroke="#000000" points="112.3994,-622.8874 112.5774,-612.2941 105.8322,-620.4643 112.3994,-622.8874"/>
</g>
<!-- Chalk&#45;&gt;PerkPills -->
<g id="edge84" class="edge">
<title>Chalk-&gt;PerkPills</title>
<path fill="none" stroke="#000000" d="M76.5973,-1658.9734C63.0785,-1633.3457 38,-1579.1771 38,-1530 38,-1530 38,-1530 38,-450 38,-400.9451 77.7716,-356.7517 107.4001,-330.6353"/>
<polygon fill="#000000" stroke="#000000" points="109.7424,-333.2375 115.0644,-324.0763 105.191,-327.9191 109.7424,-333.2375"/>
</g>
<!-- Salt -->
<g id="node53" class="node">
<title>Salt</title>
<polygon fill="#2c7fb8" stroke="#000000" points="1416,-1548 1376.7325,-1530 1416,-1512 1455.2675,-1530 1416,-1548"/>
<text text-anchor="middle" x="1416" y="-1525.8" font-family="Arial" font-size="14.00" fill="#000000">Salt</text>
</g>
<!-- Salt&#45;&gt;Chips -->
<g id="edge18" class="edge">
<title>Salt-&gt;Chips</title>
<path fill="none" stroke="#000000" d="M1410.3584,-1514.3771C1407.3433,-1506.0277 1403.5409,-1495.498 1400.0408,-1485.8052"/>
<polygon fill="#000000" stroke="#000000" points="1403.2368,-1484.3505 1396.5483,-1476.1338 1396.6529,-1486.7281 1403.2368,-1484.3505"/>
</g>
<!-- Salt&#45;&gt;MSG -->
<g id="edge66" class="edge">
<title>Salt-&gt;MSG</title>
<path fill="none" stroke="#000000" d="M1422.2536,-1514.5768C1435.8721,-1479.5507 1467,-1391.0622 1467,-1314 1467,-1314 1467,-1314 1467,-810 1467,-768.2959 1451.5716,-722.0864 1440.1227,-693.5372"/>
<polygon fill="#000000" stroke="#000000" points="1443.3235,-692.1183 1436.2709,-684.2119 1436.8537,-694.7907 1443.3235,-692.1183"/>
</g>
<!-- Water -->
<g id="node54" class="node">
<title>Water</title>
<polygon fill="#2c7fb8" stroke="#000000" points="950,-1548 897.9513,-1530 950,-1512 1002.0487,-1530 950,-1548"/>
<text text-anchor="middle" x="950" y="-1525.8" font-family="Arial" font-size="14.00" fill="#000000">Water</text>
</g>
<!-- Water&#45;&gt;Ethanol -->
<g id="edge21" class="edge">
<title>Water-&gt;Ethanol</title>
<path fill="none" stroke="#000000" d="M916.8239,-1523.4196C850.5976,-1510.2838 702.1143,-1480.8326 629.129,-1466.3562"/>
<polygon fill="#000000" stroke="#000000" points="629.4172,-1462.8452 618.9273,-1464.3327 628.0553,-1469.7115 629.4172,-1462.8452"/>
</g>
<!-- Water&#45;&gt;HFCS -->
<g id="edge40" class="edge">
<title>Water-&gt;HFCS</title>
<path fill="none" stroke="#000000" d="M943.7213,-1514.1298C926.6054,-1468.9339 881.4217,-1335.6023 897,-1224 906.1994,-1158.0954 904.8625,-1137.7058 938,-1080 961.2308,-1039.5458 1000.2282,-1002.2171 1027.659,-978.8626"/>
<polygon fill="#000000" stroke="#000000" points="1029.998,-981.4691 1035.4178,-972.3654 1025.5038,-976.1022 1029.998,-981.4691"/>
</g>
<!-- Water&#45;&gt;Eggs -->
<g id="edge53" class="edge">
<title>Water-&gt;Eggs</title>
<path fill="none" stroke="#000000" d="M983.5871,-1523.5483C1070.6708,-1505.8665 1297,-1453.4258 1297,-1386 1297,-1386 1297,-1386 1297,-1314 1297,-1184.8906 1335,-1155.1094 1335,-1026 1335,-1026 1335,-1026 1335,-810 1335,-769.2729 1326.673,-722.7384 1320.5061,-693.8595"/>
<polygon fill="#000000" stroke="#000000" points="1323.9177,-693.0768 1318.3512,-684.0621 1317.0811,-694.5806 1323.9177,-693.0768"/>
</g>
<!-- Water&#45;&gt;Tequila -->
<g id="edge38" class="edge">
<title>Water-&gt;Tequila</title>
<path fill="none" stroke="#000000" d="M956.9698,-1514.3754C967.9401,-1488.3168 988,-1434.0918 988,-1386 988,-1386 988,-1386 988,-1314 988,-1273.1184 990.2093,-1258.9496 969,-1224 903.636,-1116.2906 821.3781,-1147.8217 750,-1044 737.2265,-1025.4206 729.5356,-1000.976 725.1441,-982.2518"/>
<polygon fill="#000000" stroke="#000000" points="728.5145,-981.2782 722.9793,-972.2442 721.6727,-982.7582 728.5145,-981.2782"/>
</g>
<!-- Water&#45;&gt;Meat -->
<g id="edge26" class="edge">
<title>Water-&gt;Meat</title>
<path fill="none" stroke="#000000" d="M925.3266,-1520.3096C905.4046,-1511.3991 877.8436,-1496.4633 860,-1476 831.6999,-1443.5451 788.5154,-1324.8351 769.5241,-1270.05"/>
<polygon fill="#000000" stroke="#000000" points="772.7298,-1268.6094 766.1641,-1260.2943 766.1113,-1270.889 772.7298,-1268.6094"/>
</g>
<!-- Water&#45;&gt;Beer -->
<g id="edge34" class="edge">
<title>Water-&gt;Beer</title>
<path fill="none" stroke="#000000" d="M948.9366,-1511.9843C946.0625,-1463.2939 938.1234,-1328.7961 934.6562,-1270.0573"/>
<polygon fill="#000000" stroke="#000000" points="938.1463,-1269.7852 934.063,-1260.0089 931.1585,-1270.1978 938.1463,-1269.7852"/>
</g>
<!-- Water&#45;&gt;Hydrogen -->
<g id="edge27" class="edge">
<title>Water-&gt;Hydrogen</title>
<path fill="none" stroke="#000000" d="M991.9513,-1526.3887C1082.0752,-1518.2552 1287.9096,-1497.5241 1311,-1476 1368.7133,-1422.2015 1369.4638,-1319.7475 1365.9691,-1270.2111"/>
<polygon fill="#000000" stroke="#000000" points="1369.4542,-1269.8838 1365.1522,-1260.2017 1362.4774,-1270.4533 1369.4542,-1269.8838"/>
</g>
<!-- CO2 -->
<g id="node55" class="node">
<title>CO2</title>
<polygon fill="#2c7fb8" stroke="#000000" points="388,-468 344.134,-450 388,-432 431.866,-450 388,-468"/>
<text text-anchor="middle" x="388" y="-445.8" font-family="Arial" font-size="14.00" fill="#000000">CO2</text>
</g>
<!-- CO2&#45;&gt;Caffeine -->
<g id="edge75" class="edge">
<title>CO2-&gt;Caffeine</title>
<path fill="none" stroke="#000000" d="M394.0756,-434.3771C397.3567,-425.9398 401.5038,-415.276 405.3058,-405.4994"/>
<polygon fill="#000000" stroke="#000000" points="408.5855,-406.7224 408.948,-396.1338 402.0614,-404.1852 408.5855,-406.7224"/>
</g>
<!-- CO2&#45;&gt;EnergyDrink -->
<g id="edge80" class="edge">
<title>CO2-&gt;EnergyDrink</title>
<path fill="none" stroke="#000000" d="M380.9199,-434.6377C373.5337,-416.3992 364.1674,-385.2714 373,-360 376.5957,-349.7121 383.0628,-339.9193 389.9076,-331.568"/>
<polygon fill="#000000" stroke="#000000" points="392.5502,-333.863 396.5044,-324.0337 387.2836,-329.2517 392.5502,-333.863"/>
</g>
</g>
</svg>